<?xml version="1.0" encoding="UTF-8" ?>
<svg version="1.1" width="64" height="64" xmlns="http://www.w3.org/2000/svg" shape-rendering="crispEdges">
<rect x="26" y="16" width="1" height="1" fill="#073485" />
<rect x="27" y="16" width="1" height="1" fill="#073485" />
<rect x="28" y="16" width="1" height="1" fill="#073485" />
<rect x="29" y="16" width="1" height="1" fill="#073485" />
<rect x="30" y="16" width="1" height="1" fill="#073485" />
<rect x="31" y="16" width="1" height="1" fill="#073485" />
<rect x="32" y="16" width="1" height="1" fill="#073485" />
<rect x="25" y="17" width="1" height="1" fill="#073485" />
<rect x="26" y="17" width="1" height="1" fill="#073485" />
<rect x="27" y="17" width="1" height="1" fill="#073485" />
<rect x="28" y="17" width="1" height="1" fill="#073485" />
<rect x="29" y="17" width="1" height="1" fill="#073485" />
<rect x="30" y="17" width="1" height="1" fill="#073485" />
<rect x="31" y="17" width="1" height="1" fill="#073485" />
<rect x="32" y="17" width="1" height="1" fill="#073485" />
<rect x="33" y="17" width="1" height="1" fill="#073485" />
<rect x="24" y="18" width="1" height="1" fill="#073485" />
<rect x="25" y="18" width="1" height="1" fill="#073485" />
<rect x="26" y="18" width="1" height="1" fill="#073485" />
<rect x="27" y="18" width="1" height="1" fill="#073485" />
<rect x="28" y="18" width="1" height="1" fill="#073485" />
<rect x="29" y="18" width="1" height="1" fill="#073485" />
<rect x="30" y="18" width="1" height="1" fill="#073485" />
<rect x="31" y="18" width="1" height="1" fill="#073485" />
<rect x="32" y="18" width="1" height="1" fill="#073485" />
<rect x="33" y="18" width="1" height="1" fill="#073485" />
<rect x="34" y="18" width="1" height="1" fill="#073485" />
<rect x="23" y="19" width="1" height="1" fill="#073485" />
<rect x="24" y="19" width="1" height="1" fill="#073485" />
<rect x="25" y="19" width="1" height="1" fill="#073485" />
<rect x="26" y="19" width="1" height="1" fill="#073485" />
<rect x="27" y="19" width="1" height="1" fill="#073485" />
<rect x="28" y="19" width="1" height="1" fill="#073485" />
<rect x="29" y="19" width="1" height="1" fill="#073485" />
<rect x="30" y="19" width="1" height="1" fill="#073485" />
<rect x="31" y="19" width="1" height="1" fill="#073485" />
<rect x="32" y="19" width="1" height="1" fill="#073485" />
<rect x="33" y="19" width="1" height="1" fill="#073485" />
<rect x="34" y="19" width="1" height="1" fill="#073485" />
<rect x="35" y="19" width="1" height="1" fill="#073485" />
<rect x="22" y="20" width="1" height="1" fill="#073485" />
<rect x="23" y="20" width="1" height="1" fill="#073485" />
<rect x="24" y="20" width="1" height="1" fill="#073485" />
<rect x="25" y="20" width="1" height="1" fill="#2159BC" />
<rect x="26" y="20" width="1" height="1" fill="#2159BC" />
<rect x="27" y="20" width="1" height="1" fill="#2159BC" />
<rect x="28" y="20" width="1" height="1" fill="#2159BC" />
<rect x="29" y="20" width="1" height="1" fill="#2159BC" />
<rect x="30" y="20" width="1" height="1" fill="#2159BC" />
<rect x="31" y="20" width="1" height="1" fill="#2159BC" />
<rect x="32" y="20" width="1" height="1" fill="#2159BC" />
<rect x="33" y="20" width="1" height="1" fill="#2159BC" />
<rect x="34" y="20" width="1" height="1" fill="#073485" />
<rect x="35" y="20" width="1" height="1" fill="#073485" />
<rect x="36" y="20" width="1" height="1" fill="#073485" />
<rect x="22" y="21" width="1" height="1" fill="#073485" />
<rect x="23" y="21" width="1" height="1" fill="#2159BC" />
<rect x="24" y="21" width="1" height="1" fill="#2159BC" />
<rect x="25" y="21" width="1" height="1" fill="#4980E4" />
<rect x="26" y="21" width="1" height="1" fill="#4980E4" />
<rect x="27" y="21" width="1" height="1" fill="#4980E4" />
<rect x="28" y="21" width="1" height="1" fill="#4980E4" />
<rect x="29" y="21" width="1" height="1" fill="#4980E4" />
<rect x="30" y="21" width="1" height="1" fill="#4980E4" />
<rect x="31" y="21" width="1" height="1" fill="#4980E4" />
<rect x="32" y="21" width="1" height="1" fill="#4980E4" />
<rect x="33" y="21" width="1" height="1" fill="#4980E4" />
<rect x="34" y="21" width="1" height="1" fill="#2159BC" />
<rect x="35" y="21" width="1" height="1" fill="#2159BC" />
<rect x="36" y="21" width="1" height="1" fill="#073485" />
<rect x="22" y="22" width="1" height="1" fill="#2159BC" />
<rect x="23" y="22" width="1" height="1" fill="#EBDEDE" />
<rect x="24" y="22" width="1" height="1" fill="#4980E4" />
<rect x="25" y="22" width="1" height="1" fill="#578DEF" />
<rect x="26" y="22" width="1" height="1" fill="#FFFFFF" />
<rect x="27" y="22" width="1" height="1" fill="#FFFFFF" />
<rect x="28" y="22" width="1" height="1" fill="#A6C6FF" />
<rect x="29" y="22" width="1" height="1" fill="#578DEF" />
<rect x="30" y="22" width="1" height="1" fill="#578DEF" />
<rect x="31" y="22" width="1" height="1" fill="#578DEF" />
<rect x="32" y="22" width="1" height="1" fill="#578DEF" />
<rect x="33" y="22" width="1" height="1" fill="#578DEF" />
<rect x="34" y="22" width="1" height="1" fill="#4980E4" />
<rect x="35" y="22" width="1" height="1" fill="#EBDEDE" />
<rect x="36" y="22" width="1" height="1" fill="#2159BC" />
<rect x="21" y="23" width="1" height="1" fill="#2159BC" />
<rect x="22" y="23" width="1" height="1" fill="#FFFFFF" />
<rect x="23" y="23" width="1" height="1" fill="#4980E4" />
<rect x="24" y="23" width="1" height="1" fill="#578DEF" />
<rect x="25" y="23" width="1" height="1" fill="#578DEF" />
<rect x="26" y="23" width="1" height="1" fill="#FFFFFF" />
<rect x="27" y="23" width="1" height="1" fill="#A6C6FF" />
<rect x="28" y="23" width="1" height="1" fill="#A6C6FF" />
<rect x="29" y="23" width="1" height="1" fill="#578DEF" />
<rect x="30" y="23" width="1" height="1" fill="#9BBFFF" />
<rect x="31" y="23" width="1" height="1" fill="#578DEF" />
<rect x="32" y="23" width="1" height="1" fill="#578DEF" />
<rect x="33" y="23" width="1" height="1" fill="#578DEF" />
<rect x="34" y="23" width="1" height="1" fill="#578DEF" />
<rect x="35" y="23" width="1" height="1" fill="#4980E4" />
<rect x="36" y="23" width="1" height="1" fill="#FFFFFF" />
<rect x="37" y="23" width="1" height="1" fill="#2159BC" />
<rect x="20" y="24" width="1" height="1" fill="#2159BC" />
<rect x="21" y="24" width="1" height="1" fill="#4980E4" />
<rect x="22" y="24" width="1" height="1" fill="#4980E4" />
<rect x="23" y="24" width="1" height="1" fill="#578DEF" />
<rect x="24" y="24" width="1" height="1" fill="#578DEF" />
<rect x="25" y="24" width="1" height="1" fill="#578DEF" />
<rect x="26" y="24" width="1" height="1" fill="#578DEF" />
<rect x="27" y="24" width="1" height="1" fill="#578DEF" />
<rect x="28" y="24" width="1" height="1" fill="#578DEF" />
<rect x="29" y="24" width="1" height="1" fill="#578DEF" />
<rect x="30" y="24" width="1" height="1" fill="#578DEF" />
<rect x="31" y="24" width="1" height="1" fill="#578DEF" />
<rect x="32" y="24" width="1" height="1" fill="#578DEF" />
<rect x="33" y="24" width="1" height="1" fill="#578DEF" />
<rect x="34" y="24" width="1" height="1" fill="#9BBFFF" />
<rect x="35" y="24" width="1" height="1" fill="#578DEF" />
<rect x="36" y="24" width="1" height="1" fill="#4980E4" />
<rect x="37" y="24" width="1" height="1" fill="#4980E4" />
<rect x="38" y="24" width="1" height="1" fill="#2159BC" />
<rect x="20" y="25" width="1" height="1" fill="#2159BC" />
<rect x="21" y="25" width="1" height="1" fill="#4980E4" />
<rect x="22" y="25" width="1" height="1" fill="#578DEF" />
<rect x="23" y="25" width="1" height="1" fill="#578DEF" />
<rect x="24" y="25" width="1" height="1" fill="#578DEF" />
<rect x="25" y="25" width="1" height="1" fill="#578DEF" />
<rect x="26" y="25" width="1" height="1" fill="#76A7FF" />
<rect x="27" y="25" width="1" height="1" fill="#76A7FF" />
<rect x="28" y="25" width="1" height="1" fill="#76A7FF" />
<rect x="29" y="25" width="1" height="1" fill="#76A7FF" />
<rect x="30" y="25" width="1" height="1" fill="#76A7FF" />
<rect x="31" y="25" width="1" height="1" fill="#76A7FF" />
<rect x="32" y="25" width="1" height="1" fill="#76A7FF" />
<rect x="33" y="25" width="1" height="1" fill="#578DEF" />
<rect x="34" y="25" width="1" height="1" fill="#578DEF" />
<rect x="35" y="25" width="1" height="1" fill="#578DEF" />
<rect x="36" y="25" width="1" height="1" fill="#578DEF" />
<rect x="37" y="25" width="1" height="1" fill="#4980E4" />
<rect x="38" y="25" width="1" height="1" fill="#2159BC" />
<rect x="20" y="26" width="1" height="1" fill="#2159BC" />
<rect x="21" y="26" width="1" height="1" fill="#4980E4" />
<rect x="22" y="26" width="1" height="1" fill="#578DEF" />
<rect x="23" y="26" width="1" height="1" fill="#578DEF" />
<rect x="24" y="26" width="1" height="1" fill="#578DEF" />
<rect x="25" y="26" width="1" height="1" fill="#76A7FF" />
<rect x="26" y="26" width="1" height="1" fill="#76A7FF" />
<rect x="27" y="26" width="1" height="1" fill="#000000" />
<rect x="28" y="26" width="1" height="1" fill="#76A7FF" />
<rect x="29" y="26" width="1" height="1" fill="#76A7FF" />
<rect x="30" y="26" width="1" height="1" fill="#76A7FF" />
<rect x="31" y="26" width="1" height="1" fill="#000000" />
<rect x="32" y="26" width="1" height="1" fill="#76A7FF" />
<rect x="33" y="26" width="1" height="1" fill="#76A7FF" />
<rect x="34" y="26" width="1" height="1" fill="#578DEF" />
<rect x="35" y="26" width="1" height="1" fill="#578DEF" />
<rect x="36" y="26" width="1" height="1" fill="#578DEF" />
<rect x="37" y="26" width="1" height="1" fill="#EBDEDE" />
<rect x="38" y="26" width="1" height="1" fill="#2159BC" />
<rect x="20" y="27" width="1" height="1" fill="#2159BC" />
<rect x="21" y="27" width="1" height="1" fill="#4980E4" />
<rect x="22" y="27" width="1" height="1" fill="#578DEF" />
<rect x="23" y="27" width="1" height="1" fill="#578DEF" />
<rect x="24" y="27" width="1" height="1" fill="#76A7FF" />
<rect x="25" y="27" width="1" height="1" fill="#76A7FF" />
<rect x="26" y="27" width="1" height="1" fill="#2159BC" />
<rect x="27" y="27" width="1" height="1" fill="#000000" />
<rect x="28" y="27" width="1" height="1" fill="#2159BC" />
<rect x="29" y="27" width="1" height="1" fill="#2159BC" />
<rect x="30" y="27" width="1" height="1" fill="#2159BC" />
<rect x="31" y="27" width="1" height="1" fill="#000000" />
<rect x="32" y="27" width="1" height="1" fill="#2159BC" />
<rect x="33" y="27" width="1" height="1" fill="#76A7FF" />
<rect x="34" y="27" width="1" height="1" fill="#76A7FF" />
<rect x="35" y="27" width="1" height="1" fill="#578DEF" />
<rect x="36" y="27" width="1" height="1" fill="#578DEF" />
<rect x="37" y="27" width="1" height="1" fill="#4980E4" />
<rect x="38" y="27" width="1" height="1" fill="#2159BC" />
<rect x="20" y="28" width="1" height="1" fill="#2159BC" />
<rect x="21" y="28" width="1" height="1" fill="#4980E4" />
<rect x="22" y="28" width="1" height="1" fill="#578DEF" />
<rect x="23" y="28" width="1" height="1" fill="#76A7FF" />
<rect x="24" y="28" width="1" height="1" fill="#2159BC" />
<rect x="25" y="28" width="1" height="1" fill="#2159BC" />
<rect x="26" y="28" width="1" height="1" fill="#2159BC" />
<rect x="27" y="28" width="1" height="1" fill="#000000" />
<rect x="28" y="28" width="1" height="1" fill="#2159BC" />
<rect x="29" y="28" width="1" height="1" fill="#2159BC" />
<rect x="30" y="28" width="1" height="1" fill="#2159BC" />
<rect x="31" y="28" width="1" height="1" fill="#000000" />
<rect x="32" y="28" width="1" height="1" fill="#2159BC" />
<rect x="33" y="28" width="1" height="1" fill="#2159BC" />
<rect x="34" y="28" width="1" height="1" fill="#2159BC" />
<rect x="35" y="28" width="1" height="1" fill="#76A7FF" />
<rect x="36" y="28" width="1" height="1" fill="#578DEF" />
<rect x="37" y="28" width="1" height="1" fill="#4980E4" />
<rect x="38" y="28" width="1" height="1" fill="#2159BC" />
<rect x="20" y="29" width="1" height="1" fill="#2159BC" />
<rect x="21" y="29" width="1" height="1" fill="#4980E4" />
<rect x="22" y="29" width="1" height="1" fill="#578DEF" />
<rect x="23" y="29" width="1" height="1" fill="#76A7FF" />
<rect x="24" y="29" width="1" height="1" fill="#2159BC" />
<rect x="25" y="29" width="1" height="1" fill="#2159BC" />
<rect x="26" y="29" width="1" height="1" fill="#2159BC" />
<rect x="27" y="29" width="1" height="1" fill="#2159BC" />
<rect x="28" y="29" width="1" height="1" fill="#2159BC" />
<rect x="29" y="29" width="1" height="1" fill="#2159BC" />
<rect x="30" y="29" width="1" height="1" fill="#2159BC" />
<rect x="31" y="29" width="1" height="1" fill="#2159BC" />
<rect x="32" y="29" width="1" height="1" fill="#2159BC" />
<rect x="33" y="29" width="1" height="1" fill="#2159BC" />
<rect x="34" y="29" width="1" height="1" fill="#2159BC" />
<rect x="35" y="29" width="1" height="1" fill="#76A7FF" />
<rect x="36" y="29" width="1" height="1" fill="#578DEF" />
<rect x="37" y="29" width="1" height="1" fill="#4980E4" />
<rect x="38" y="29" width="1" height="1" fill="#2159BC" />
<rect x="20" y="30" width="1" height="1" fill="#2159BC" />
<rect x="21" y="30" width="1" height="1" fill="#EBDEDE" />
<rect x="22" y="30" width="1" height="1" fill="#578DEF" />
<rect x="23" y="30" width="1" height="1" fill="#76A7FF" />
<rect x="24" y="30" width="1" height="1" fill="#2159BC" />
<rect x="25" y="30" width="1" height="1" fill="#2159BC" />
<rect x="26" y="30" width="1" height="1" fill="#2159BC" />
<rect x="27" y="30" width="1" height="1" fill="#2159BC" />
<rect x="28" y="30" width="1" height="1" fill="#2159BC" />
<rect x="29" y="30" width="1" height="1" fill="#2159BC" />
<rect x="30" y="30" width="1" height="1" fill="#2159BC" />
<rect x="31" y="30" width="1" height="1" fill="#2159BC" />
<rect x="32" y="30" width="1" height="1" fill="#2159BC" />
<rect x="33" y="30" width="1" height="1" fill="#2159BC" />
<rect x="34" y="30" width="1" height="1" fill="#2159BC" />
<rect x="35" y="30" width="1" height="1" fill="#76A7FF" />
<rect x="36" y="30" width="1" height="1" fill="#578DEF" />
<rect x="37" y="30" width="1" height="1" fill="#4980E4" />
<rect x="38" y="30" width="1" height="1" fill="#2159BC" />
<rect x="20" y="31" width="1" height="1" fill="#2159BC" />
<rect x="21" y="31" width="1" height="1" fill="#4980E4" />
<rect x="22" y="31" width="1" height="1" fill="#578DEF" />
<rect x="23" y="31" width="1" height="1" fill="#578DEF" />
<rect x="24" y="31" width="1" height="1" fill="#76A7FF" />
<rect x="25" y="31" width="1" height="1" fill="#76A7FF" />
<rect x="26" y="31" width="1" height="1" fill="#2159BC" />
<rect x="27" y="31" width="1" height="1" fill="#2159BC" />
<rect x="28" y="31" width="1" height="1" fill="#2159BC" />
<rect x="29" y="31" width="1" height="1" fill="#2159BC" />
<rect x="30" y="31" width="1" height="1" fill="#2159BC" />
<rect x="31" y="31" width="1" height="1" fill="#2159BC" />
<rect x="32" y="31" width="1" height="1" fill="#2159BC" />
<rect x="33" y="31" width="1" height="1" fill="#76A7FF" />
<rect x="34" y="31" width="1" height="1" fill="#76A7FF" />
<rect x="35" y="31" width="1" height="1" fill="#578DEF" />
<rect x="36" y="31" width="1" height="1" fill="#578DEF" />
<rect x="37" y="31" width="1" height="1" fill="#4980E4" />
<rect x="38" y="31" width="1" height="1" fill="#2159BC" />
<rect x="21" y="32" width="1" height="1" fill="#2159BC" />
<rect x="22" y="32" width="1" height="1" fill="#4980E4" />
<rect x="23" y="32" width="1" height="1" fill="#578DEF" />
<rect x="24" y="32" width="1" height="1" fill="#578DEF" />
<rect x="25" y="32" width="1" height="1" fill="#76A7FF" />
<rect x="26" y="32" width="1" height="1" fill="#76A7FF" />
<rect x="27" y="32" width="1" height="1" fill="#76A7FF" />
<rect x="28" y="32" width="1" height="1" fill="#76A7FF" />
<rect x="29" y="32" width="1" height="1" fill="#76A7FF" />
<rect x="30" y="32" width="1" height="1" fill="#76A7FF" />
<rect x="31" y="32" width="1" height="1" fill="#76A7FF" />
<rect x="32" y="32" width="1" height="1" fill="#76A7FF" />
<rect x="33" y="32" width="1" height="1" fill="#76A7FF" />
<rect x="34" y="32" width="1" height="1" fill="#578DEF" />
<rect x="35" y="32" width="1" height="1" fill="#578DEF" />
<rect x="36" y="32" width="1" height="1" fill="#4980E4" />
<rect x="37" y="32" width="1" height="1" fill="#2159BC" />
<rect x="22" y="33" width="1" height="1" fill="#2159BC" />
<rect x="23" y="33" width="1" height="1" fill="#4980E4" />
<rect x="24" y="33" width="1" height="1" fill="#4980E4" />
<rect x="25" y="33" width="1" height="1" fill="#578DEF" />
<rect x="26" y="33" width="1" height="1" fill="#578DEF" />
<rect x="27" y="33" width="1" height="1" fill="#578DEF" />
<rect x="28" y="33" width="1" height="1" fill="#578DEF" />
<rect x="29" y="33" width="1" height="1" fill="#578DEF" />
<rect x="30" y="33" width="1" height="1" fill="#578DEF" />
<rect x="31" y="33" width="1" height="1" fill="#578DEF" />
<rect x="32" y="33" width="1" height="1" fill="#578DEF" />
<rect x="33" y="33" width="1" height="1" fill="#578DEF" />
<rect x="34" y="33" width="1" height="1" fill="#4980E4" />
<rect x="35" y="33" width="1" height="1" fill="#4980E4" />
<rect x="36" y="33" width="1" height="1" fill="#2159BC" />
<rect x="23" y="34" width="1" height="1" fill="#2159BC" />
<rect x="24" y="34" width="1" height="1" fill="#2159BC" />
<rect x="25" y="34" width="1" height="1" fill="#4980E4" />
<rect x="26" y="34" width="1" height="1" fill="#4980E4" />
<rect x="27" y="34" width="1" height="1" fill="#4980E4" />
<rect x="28" y="34" width="1" height="1" fill="#4980E4" />
<rect x="29" y="34" width="1" height="1" fill="#4980E4" />
<rect x="30" y="34" width="1" height="1" fill="#4980E4" />
<rect x="31" y="34" width="1" height="1" fill="#4980E4" />
<rect x="32" y="34" width="1" height="1" fill="#EBDEDE" />
<rect x="33" y="34" width="1" height="1" fill="#4980E4" />
<rect x="34" y="34" width="1" height="1" fill="#2159BC" />
<rect x="35" y="34" width="1" height="1" fill="#2159BC" />
<rect x="25" y="35" width="1" height="1" fill="#2159BC" />
<rect x="26" y="35" width="1" height="1" fill="#2159BC" />
<rect x="27" y="35" width="1" height="1" fill="#2159BC" />
<rect x="28" y="35" width="1" height="1" fill="#2159BC" />
<rect x="29" y="35" width="1" height="1" fill="#2159BC" />
<rect x="30" y="35" width="1" height="1" fill="#2159BC" />
<rect x="31" y="35" width="1" height="1" fill="#2159BC" />
<rect x="32" y="35" width="1" height="1" fill="#2159BC" />
<rect x="33" y="35" width="1" height="1" fill="#2159BC" />
</svg>