<?xml version="1.0" encoding="UTF-8" ?>
<svg version="1.1" width="64" height="64" xmlns="http://www.w3.org/2000/svg" shape-rendering="crispEdges">
<rect x="27" y="26" width="1" height="1" fill="#2159BC" />
<rect x="28" y="26" width="1" height="1" fill="#2159BC" />
<rect x="29" y="26" width="1" height="1" fill="#2159BC" />
<rect x="30" y="26" width="1" height="1" fill="#2159BC" />
<rect x="31" y="26" width="1" height="1" fill="#2159BC" />
<rect x="32" y="26" width="1" height="1" fill="#2159BC" />
<rect x="33" y="26" width="1" height="1" fill="#2159BC" />
<rect x="34" y="26" width="1" height="1" fill="#2159BC" />
<rect x="35" y="26" width="1" height="1" fill="#2159BC" />
<rect x="25" y="27" width="1" height="1" fill="#2159BC" />
<rect x="26" y="27" width="1" height="1" fill="#2159BC" />
<rect x="27" y="27" width="1" height="1" fill="#4980E4" />
<rect x="28" y="27" width="1" height="1" fill="#4980E4" />
<rect x="29" y="27" width="1" height="1" fill="#4980E4" />
<rect x="30" y="27" width="1" height="1" fill="#4980E4" />
<rect x="31" y="27" width="1" height="1" fill="#4980E4" />
<rect x="32" y="27" width="1" height="1" fill="#4980E4" />
<rect x="33" y="27" width="1" height="1" fill="#4980E4" />
<rect x="34" y="27" width="1" height="1" fill="#4980E4" />
<rect x="35" y="27" width="1" height="1" fill="#4980E4" />
<rect x="36" y="27" width="1" height="1" fill="#2159BC" />
<rect x="37" y="27" width="1" height="1" fill="#2159BC" />
<rect x="24" y="28" width="1" height="1" fill="#2159BC" />
<rect x="25" y="28" width="1" height="1" fill="#EBDEDE" />
<rect x="26" y="28" width="1" height="1" fill="#4980E4" />
<rect x="27" y="28" width="1" height="1" fill="#578DEF" />
<rect x="28" y="28" width="1" height="1" fill="#FFFFFF" />
<rect x="29" y="28" width="1" height="1" fill="#FFFFFF" />
<rect x="30" y="28" width="1" height="1" fill="#A6C6FF" />
<rect x="31" y="28" width="1" height="1" fill="#578DEF" />
<rect x="32" y="28" width="1" height="1" fill="#578DEF" />
<rect x="33" y="28" width="1" height="1" fill="#578DEF" />
<rect x="34" y="28" width="1" height="1" fill="#578DEF" />
<rect x="35" y="28" width="1" height="1" fill="#578DEF" />
<rect x="36" y="28" width="1" height="1" fill="#4980E4" />
<rect x="37" y="28" width="1" height="1" fill="#EBDEDE" />
<rect x="38" y="28" width="1" height="1" fill="#2159BC" />
<rect x="23" y="29" width="1" height="1" fill="#2159BC" />
<rect x="24" y="29" width="1" height="1" fill="#FFFFFF" />
<rect x="25" y="29" width="1" height="1" fill="#4980E4" />
<rect x="26" y="29" width="1" height="1" fill="#578DEF" />
<rect x="27" y="29" width="1" height="1" fill="#578DEF" />
<rect x="28" y="29" width="1" height="1" fill="#FFFFFF" />
<rect x="29" y="29" width="1" height="1" fill="#A6C6FF" />
<rect x="30" y="29" width="1" height="1" fill="#A6C6FF" />
<rect x="31" y="29" width="1" height="1" fill="#578DEF" />
<rect x="32" y="29" width="1" height="1" fill="#9BBFFF" />
<rect x="33" y="29" width="1" height="1" fill="#578DEF" />
<rect x="34" y="29" width="1" height="1" fill="#578DEF" />
<rect x="35" y="29" width="1" height="1" fill="#578DEF" />
<rect x="36" y="29" width="1" height="1" fill="#578DEF" />
<rect x="37" y="29" width="1" height="1" fill="#4980E4" />
<rect x="38" y="29" width="1" height="1" fill="#FFFFFF" />
<rect x="39" y="29" width="1" height="1" fill="#2159BC" />
<rect x="22" y="30" width="1" height="1" fill="#2159BC" />
<rect x="23" y="30" width="1" height="1" fill="#4980E4" />
<rect x="24" y="30" width="1" height="1" fill="#4980E4" />
<rect x="25" y="30" width="1" height="1" fill="#578DEF" />
<rect x="26" y="30" width="1" height="1" fill="#578DEF" />
<rect x="27" y="30" width="1" height="1" fill="#578DEF" />
<rect x="28" y="30" width="1" height="1" fill="#578DEF" />
<rect x="29" y="30" width="1" height="1" fill="#578DEF" />
<rect x="30" y="30" width="1" height="1" fill="#578DEF" />
<rect x="31" y="30" width="1" height="1" fill="#578DEF" />
<rect x="32" y="30" width="1" height="1" fill="#578DEF" />
<rect x="33" y="30" width="1" height="1" fill="#578DEF" />
<rect x="34" y="30" width="1" height="1" fill="#578DEF" />
<rect x="35" y="30" width="1" height="1" fill="#578DEF" />
<rect x="36" y="30" width="1" height="1" fill="#9BBFFF" />
<rect x="37" y="30" width="1" height="1" fill="#578DEF" />
<rect x="38" y="30" width="1" height="1" fill="#4980E4" />
<rect x="39" y="30" width="1" height="1" fill="#4980E4" />
<rect x="40" y="30" width="1" height="1" fill="#2159BC" />
<rect x="22" y="31" width="1" height="1" fill="#2159BC" />
<rect x="23" y="31" width="1" height="1" fill="#4980E4" />
<rect x="24" y="31" width="1" height="1" fill="#578DEF" />
<rect x="25" y="31" width="1" height="1" fill="#578DEF" />
<rect x="26" y="31" width="1" height="1" fill="#578DEF" />
<rect x="27" y="31" width="1" height="1" fill="#578DEF" />
<rect x="28" y="31" width="1" height="1" fill="#76A7FF" />
<rect x="29" y="31" width="1" height="1" fill="#76A7FF" />
<rect x="30" y="31" width="1" height="1" fill="#76A7FF" />
<rect x="31" y="31" width="1" height="1" fill="#76A7FF" />
<rect x="32" y="31" width="1" height="1" fill="#76A7FF" />
<rect x="33" y="31" width="1" height="1" fill="#76A7FF" />
<rect x="34" y="31" width="1" height="1" fill="#76A7FF" />
<rect x="35" y="31" width="1" height="1" fill="#578DEF" />
<rect x="36" y="31" width="1" height="1" fill="#578DEF" />
<rect x="37" y="31" width="1" height="1" fill="#578DEF" />
<rect x="38" y="31" width="1" height="1" fill="#578DEF" />
<rect x="39" y="31" width="1" height="1" fill="#4980E4" />
<rect x="40" y="31" width="1" height="1" fill="#2159BC" />
<rect x="22" y="32" width="1" height="1" fill="#2159BC" />
<rect x="23" y="32" width="1" height="1" fill="#4980E4" />
<rect x="24" y="32" width="1" height="1" fill="#578DEF" />
<rect x="25" y="32" width="1" height="1" fill="#578DEF" />
<rect x="26" y="32" width="1" height="1" fill="#578DEF" />
<rect x="27" y="32" width="1" height="1" fill="#76A7FF" />
<rect x="28" y="32" width="1" height="1" fill="#76A7FF" />
<rect x="29" y="32" width="1" height="1" fill="#000000" />
<rect x="30" y="32" width="1" height="1" fill="#76A7FF" />
<rect x="31" y="32" width="1" height="1" fill="#76A7FF" />
<rect x="32" y="32" width="1" height="1" fill="#76A7FF" />
<rect x="33" y="32" width="1" height="1" fill="#000000" />
<rect x="34" y="32" width="1" height="1" fill="#76A7FF" />
<rect x="35" y="32" width="1" height="1" fill="#76A7FF" />
<rect x="36" y="32" width="1" height="1" fill="#578DEF" />
<rect x="37" y="32" width="1" height="1" fill="#578DEF" />
<rect x="38" y="32" width="1" height="1" fill="#578DEF" />
<rect x="39" y="32" width="1" height="1" fill="#EBDEDE" />
<rect x="40" y="32" width="1" height="1" fill="#2159BC" />
<rect x="22" y="33" width="1" height="1" fill="#2159BC" />
<rect x="23" y="33" width="1" height="1" fill="#4980E4" />
<rect x="24" y="33" width="1" height="1" fill="#578DEF" />
<rect x="25" y="33" width="1" height="1" fill="#578DEF" />
<rect x="26" y="33" width="1" height="1" fill="#76A7FF" />
<rect x="27" y="33" width="1" height="1" fill="#76A7FF" />
<rect x="28" y="33" width="1" height="1" fill="#2159BC" />
<rect x="29" y="33" width="1" height="1" fill="#000000" />
<rect x="30" y="33" width="1" height="1" fill="#2159BC" />
<rect x="31" y="33" width="1" height="1" fill="#2159BC" />
<rect x="32" y="33" width="1" height="1" fill="#2159BC" />
<rect x="33" y="33" width="1" height="1" fill="#000000" />
<rect x="34" y="33" width="1" height="1" fill="#2159BC" />
<rect x="35" y="33" width="1" height="1" fill="#76A7FF" />
<rect x="36" y="33" width="1" height="1" fill="#76A7FF" />
<rect x="37" y="33" width="1" height="1" fill="#578DEF" />
<rect x="38" y="33" width="1" height="1" fill="#578DEF" />
<rect x="39" y="33" width="1" height="1" fill="#4980E4" />
<rect x="40" y="33" width="1" height="1" fill="#2159BC" />
<rect x="22" y="34" width="1" height="1" fill="#2159BC" />
<rect x="23" y="34" width="1" height="1" fill="#4980E4" />
<rect x="24" y="34" width="1" height="1" fill="#578DEF" />
<rect x="25" y="34" width="1" height="1" fill="#76A7FF" />
<rect x="26" y="34" width="1" height="1" fill="#2159BC" />
<rect x="27" y="34" width="1" height="1" fill="#2159BC" />
<rect x="28" y="34" width="1" height="1" fill="#2159BC" />
<rect x="29" y="34" width="1" height="1" fill="#000000" />
<rect x="30" y="34" width="1" height="1" fill="#2159BC" />
<rect x="31" y="34" width="1" height="1" fill="#2159BC" />
<rect x="32" y="34" width="1" height="1" fill="#2159BC" />
<rect x="33" y="34" width="1" height="1" fill="#000000" />
<rect x="34" y="34" width="1" height="1" fill="#2159BC" />
<rect x="35" y="34" width="1" height="1" fill="#2159BC" />
<rect x="36" y="34" width="1" height="1" fill="#2159BC" />
<rect x="37" y="34" width="1" height="1" fill="#76A7FF" />
<rect x="38" y="34" width="1" height="1" fill="#578DEF" />
<rect x="39" y="34" width="1" height="1" fill="#4980E4" />
<rect x="40" y="34" width="1" height="1" fill="#2159BC" />
<rect x="22" y="35" width="1" height="1" fill="#2159BC" />
<rect x="23" y="35" width="1" height="1" fill="#4980E4" />
<rect x="24" y="35" width="1" height="1" fill="#578DEF" />
<rect x="25" y="35" width="1" height="1" fill="#76A7FF" />
<rect x="26" y="35" width="1" height="1" fill="#2159BC" />
<rect x="27" y="35" width="1" height="1" fill="#2159BC" />
<rect x="28" y="35" width="1" height="1" fill="#2159BC" />
<rect x="29" y="35" width="1" height="1" fill="#2159BC" />
<rect x="30" y="35" width="1" height="1" fill="#2159BC" />
<rect x="31" y="35" width="1" height="1" fill="#2159BC" />
<rect x="32" y="35" width="1" height="1" fill="#2159BC" />
<rect x="33" y="35" width="1" height="1" fill="#2159BC" />
<rect x="34" y="35" width="1" height="1" fill="#2159BC" />
<rect x="35" y="35" width="1" height="1" fill="#2159BC" />
<rect x="36" y="35" width="1" height="1" fill="#2159BC" />
<rect x="37" y="35" width="1" height="1" fill="#76A7FF" />
<rect x="38" y="35" width="1" height="1" fill="#578DEF" />
<rect x="39" y="35" width="1" height="1" fill="#4980E4" />
<rect x="40" y="35" width="1" height="1" fill="#2159BC" />
<rect x="22" y="36" width="1" height="1" fill="#2159BC" />
<rect x="23" y="36" width="1" height="1" fill="#EBDEDE" />
<rect x="24" y="36" width="1" height="1" fill="#578DEF" />
<rect x="25" y="36" width="1" height="1" fill="#76A7FF" />
<rect x="26" y="36" width="1" height="1" fill="#2159BC" />
<rect x="27" y="36" width="1" height="1" fill="#2159BC" />
<rect x="28" y="36" width="1" height="1" fill="#2159BC" />
<rect x="29" y="36" width="1" height="1" fill="#2159BC" />
<rect x="30" y="36" width="1" height="1" fill="#2159BC" />
<rect x="31" y="36" width="1" height="1" fill="#2159BC" />
<rect x="32" y="36" width="1" height="1" fill="#2159BC" />
<rect x="33" y="36" width="1" height="1" fill="#2159BC" />
<rect x="34" y="36" width="1" height="1" fill="#2159BC" />
<rect x="35" y="36" width="1" height="1" fill="#2159BC" />
<rect x="36" y="36" width="1" height="1" fill="#2159BC" />
<rect x="37" y="36" width="1" height="1" fill="#76A7FF" />
<rect x="38" y="36" width="1" height="1" fill="#578DEF" />
<rect x="39" y="36" width="1" height="1" fill="#4980E4" />
<rect x="40" y="36" width="1" height="1" fill="#2159BC" />
<rect x="22" y="37" width="1" height="1" fill="#2159BC" />
<rect x="23" y="37" width="1" height="1" fill="#4980E4" />
<rect x="24" y="37" width="1" height="1" fill="#578DEF" />
<rect x="25" y="37" width="1" height="1" fill="#578DEF" />
<rect x="26" y="37" width="1" height="1" fill="#76A7FF" />
<rect x="27" y="37" width="1" height="1" fill="#76A7FF" />
<rect x="28" y="37" width="1" height="1" fill="#2159BC" />
<rect x="29" y="37" width="1" height="1" fill="#2159BC" />
<rect x="30" y="37" width="1" height="1" fill="#2159BC" />
<rect x="31" y="37" width="1" height="1" fill="#2159BC" />
<rect x="32" y="37" width="1" height="1" fill="#2159BC" />
<rect x="33" y="37" width="1" height="1" fill="#2159BC" />
<rect x="34" y="37" width="1" height="1" fill="#2159BC" />
<rect x="35" y="37" width="1" height="1" fill="#76A7FF" />
<rect x="36" y="37" width="1" height="1" fill="#76A7FF" />
<rect x="37" y="37" width="1" height="1" fill="#578DEF" />
<rect x="38" y="37" width="1" height="1" fill="#578DEF" />
<rect x="39" y="37" width="1" height="1" fill="#4980E4" />
<rect x="40" y="37" width="1" height="1" fill="#2159BC" />
<rect x="23" y="38" width="1" height="1" fill="#2159BC" />
<rect x="24" y="38" width="1" height="1" fill="#4980E4" />
<rect x="25" y="38" width="1" height="1" fill="#578DEF" />
<rect x="26" y="38" width="1" height="1" fill="#578DEF" />
<rect x="27" y="38" width="1" height="1" fill="#76A7FF" />
<rect x="28" y="38" width="1" height="1" fill="#76A7FF" />
<rect x="29" y="38" width="1" height="1" fill="#76A7FF" />
<rect x="30" y="38" width="1" height="1" fill="#76A7FF" />
<rect x="31" y="38" width="1" height="1" fill="#76A7FF" />
<rect x="32" y="38" width="1" height="1" fill="#76A7FF" />
<rect x="33" y="38" width="1" height="1" fill="#76A7FF" />
<rect x="34" y="38" width="1" height="1" fill="#76A7FF" />
<rect x="35" y="38" width="1" height="1" fill="#76A7FF" />
<rect x="36" y="38" width="1" height="1" fill="#578DEF" />
<rect x="37" y="38" width="1" height="1" fill="#578DEF" />
<rect x="38" y="38" width="1" height="1" fill="#4980E4" />
<rect x="39" y="38" width="1" height="1" fill="#2159BC" />
<rect x="24" y="39" width="1" height="1" fill="#2159BC" />
<rect x="25" y="39" width="1" height="1" fill="#4980E4" />
<rect x="26" y="39" width="1" height="1" fill="#4980E4" />
<rect x="27" y="39" width="1" height="1" fill="#578DEF" />
<rect x="28" y="39" width="1" height="1" fill="#578DEF" />
<rect x="29" y="39" width="1" height="1" fill="#578DEF" />
<rect x="30" y="39" width="1" height="1" fill="#578DEF" />
<rect x="31" y="39" width="1" height="1" fill="#578DEF" />
<rect x="32" y="39" width="1" height="1" fill="#578DEF" />
<rect x="33" y="39" width="1" height="1" fill="#578DEF" />
<rect x="34" y="39" width="1" height="1" fill="#578DEF" />
<rect x="35" y="39" width="1" height="1" fill="#578DEF" />
<rect x="36" y="39" width="1" height="1" fill="#4980E4" />
<rect x="37" y="39" width="1" height="1" fill="#4980E4" />
<rect x="38" y="39" width="1" height="1" fill="#2159BC" />
<rect x="25" y="40" width="1" height="1" fill="#2159BC" />
<rect x="26" y="40" width="1" height="1" fill="#2159BC" />
<rect x="27" y="40" width="1" height="1" fill="#4980E4" />
<rect x="28" y="40" width="1" height="1" fill="#4980E4" />
<rect x="29" y="40" width="1" height="1" fill="#4980E4" />
<rect x="30" y="40" width="1" height="1" fill="#4980E4" />
<rect x="31" y="40" width="1" height="1" fill="#4980E4" />
<rect x="32" y="40" width="1" height="1" fill="#4980E4" />
<rect x="33" y="40" width="1" height="1" fill="#4980E4" />
<rect x="34" y="40" width="1" height="1" fill="#EBDEDE" />
<rect x="35" y="40" width="1" height="1" fill="#4980E4" />
<rect x="36" y="40" width="1" height="1" fill="#2159BC" />
<rect x="37" y="40" width="1" height="1" fill="#2159BC" />
<rect x="27" y="41" width="1" height="1" fill="#2159BC" />
<rect x="28" y="41" width="1" height="1" fill="#2159BC" />
<rect x="29" y="41" width="1" height="1" fill="#2159BC" />
<rect x="30" y="41" width="1" height="1" fill="#2159BC" />
<rect x="31" y="41" width="1" height="1" fill="#2159BC" />
<rect x="32" y="41" width="1" height="1" fill="#2159BC" />
<rect x="33" y="41" width="1" height="1" fill="#2159BC" />
<rect x="34" y="41" width="1" height="1" fill="#2159BC" />
<rect x="35" y="41" width="1" height="1" fill="#2159BC" />
</svg>