<?xml version="1.0" encoding="UTF-8" ?>
<svg version="1.1" width="64" height="64" xmlns="http://www.w3.org/2000/svg" shape-rendering="crispEdges">
<rect x="13" y="7" width="1" height="1" fill="#87CEFA" />
<rect x="14" y="7" width="1" height="1" fill="#87CEFA" />
<rect x="23" y="7" width="1" height="1" fill="#87CEFA" />
<rect x="15" y="8" width="1" height="1" fill="#87CEFA" />
<rect x="22" y="8" width="1" height="1" fill="#87CEFA" />
<rect x="32" y="8" width="1" height="1" fill="#87CEFA" />
<rect x="16" y="9" width="1" height="1" fill="#87CEFA" />
<rect x="22" y="9" width="1" height="1" fill="#87CEFA" />
<rect x="31" y="9" width="1" height="1" fill="#87CEFA" />
<rect x="22" y="10" width="1" height="1" fill="#87CEFA" />
<rect x="30" y="10" width="1" height="1" fill="#87CEFA" />
<rect x="29" y="11" width="1" height="1" fill="#87CEFA" />
<rect x="21" y="12" width="1" height="1" fill="#17111A" />
<rect x="22" y="12" width="1" height="1" fill="#C5CACD" />
<rect x="23" y="12" width="1" height="1" fill="#989FA4" />
<rect x="24" y="12" width="1" height="1" fill="#17111A" />
<rect x="13" y="13" width="1" height="1" fill="#717A84" />
<rect x="14" y="13" width="1" height="1" fill="#717A84" />
<rect x="15" y="13" width="1" height="1" fill="#717A84" />
<rect x="21" y="13" width="1" height="1" fill="#17111A" />
<rect x="22" y="13" width="1" height="1" fill="#989FA4" />
<rect x="23" y="13" width="1" height="1" fill="#989FA4" />
<rect x="24" y="13" width="1" height="1" fill="#17111A" />
<rect x="12" y="14" width="1" height="1" fill="#717A84" />
<rect x="13" y="14" width="1" height="1" fill="#717A84" />
<rect x="14" y="14" width="1" height="1" fill="#717A84" />
<rect x="15" y="14" width="1" height="1" fill="#717A84" />
<rect x="16" y="14" width="1" height="1" fill="#717A84" />
<rect x="17" y="14" width="1" height="1" fill="#717A84" />
<rect x="22" y="14" width="1" height="1" fill="#6E3E19" />
<rect x="23" y="14" width="1" height="1" fill="#5A3416" />
<rect x="7" y="15" width="1" height="1" fill="#87CEFA" />
<rect x="8" y="15" width="1" height="1" fill="#87CEFA" />
<rect x="9" y="15" width="1" height="1" fill="#87CEFA" />
<rect x="11" y="15" width="1" height="1" fill="#717A84" />
<rect x="12" y="15" width="1" height="1" fill="#6C607B" />
<rect x="13" y="15" width="1" height="1" fill="#94A0AD" />
<rect x="14" y="15" width="1" height="1" fill="#94A0AD" />
<rect x="15" y="15" width="1" height="1" fill="#94A0AD" />
<rect x="16" y="15" width="1" height="1" fill="#717A84" />
<rect x="17" y="15" width="1" height="1" fill="#94A0AD" />
<rect x="18" y="15" width="1" height="1" fill="#717A84" />
<rect x="19" y="15" width="1" height="1" fill="#717A84" />
<rect x="22" y="15" width="1" height="1" fill="#6E3E19" />
<rect x="23" y="15" width="1" height="1" fill="#6E3E19" />
<rect x="6" y="16" width="1" height="1" fill="#87CEFA" />
<rect x="10" y="16" width="1" height="1" fill="#87CEFA" />
<rect x="11" y="16" width="1" height="1" fill="#87CEFA" />
<rect x="12" y="16" width="1" height="1" fill="#717A84" />
<rect x="13" y="16" width="1" height="1" fill="#94A0AD" />
<rect x="14" y="16" width="1" height="1" fill="#94A0AD" />
<rect x="15" y="16" width="1" height="1" fill="#94A0AD" />
<rect x="16" y="16" width="1" height="1" fill="#717A84" />
<rect x="17" y="16" width="1" height="1" fill="#717A84" />
<rect x="18" y="16" width="1" height="1" fill="#94A0AD" />
<rect x="19" y="16" width="1" height="1" fill="#94A0AD" />
<rect x="20" y="16" width="1" height="1" fill="#717A84" />
<rect x="22" y="16" width="1" height="1" fill="#000000" />
<rect x="23" y="16" width="1" height="1" fill="#000000" />
<rect x="10" y="17" width="1" height="1" fill="#717A84" />
<rect x="11" y="17" width="1" height="1" fill="#6C607B" />
<rect x="12" y="17" width="1" height="1" fill="#87CEFA" />
<rect x="13" y="17" width="1" height="1" fill="#87CEFA" />
<rect x="14" y="17" width="1" height="1" fill="#87CEFA" />
<rect x="15" y="17" width="1" height="1" fill="#94A0AD" />
<rect x="16" y="17" width="1" height="1" fill="#717A84" />
<rect x="17" y="17" width="1" height="1" fill="#717A84" />
<rect x="18" y="17" width="1" height="1" fill="#94A0AD" />
<rect x="19" y="17" width="1" height="1" fill="#94A0AD" />
<rect x="20" y="17" width="1" height="1" fill="#717A84" />
<rect x="21" y="17" width="1" height="1" fill="#717A84" />
<rect x="22" y="17" width="1" height="1" fill="#000000" />
<rect x="23" y="17" width="1" height="1" fill="#000000" />
<rect x="10" y="18" width="1" height="1" fill="#717A84" />
<rect x="11" y="18" width="1" height="1" fill="#6C607B" />
<rect x="12" y="18" width="1" height="1" fill="#94A0AD" />
<rect x="13" y="18" width="1" height="1" fill="#717A84" />
<rect x="14" y="18" width="1" height="1" fill="#94A0AD" />
<rect x="15" y="18" width="1" height="1" fill="#87CEFA" />
<rect x="16" y="18" width="1" height="1" fill="#87CEFA" />
<rect x="17" y="18" width="1" height="1" fill="#94A0AD" />
<rect x="18" y="18" width="1" height="1" fill="#717A84" />
<rect x="19" y="18" width="1" height="1" fill="#94A0AD" />
<rect x="20" y="18" width="1" height="1" fill="#717A84" />
<rect x="21" y="18" width="1" height="1" fill="#94A0AD" />
<rect x="22" y="18" width="1" height="1" fill="#5A3416" />
<rect x="23" y="18" width="1" height="1" fill="#6E3E19" />
<rect x="27" y="18" width="1" height="1" fill="#87CEFA" />
<rect x="28" y="18" width="1" height="1" fill="#87CEFA" />
<rect x="29" y="18" width="1" height="1" fill="#87CEFA" />
<rect x="10" y="19" width="1" height="1" fill="#717A84" />
<rect x="11" y="19" width="1" height="1" fill="#6C607B" />
<rect x="12" y="19" width="1" height="1" fill="#94A0AD" />
<rect x="13" y="19" width="1" height="1" fill="#94A0AD" />
<rect x="14" y="19" width="1" height="1" fill="#717A84" />
<rect x="15" y="19" width="1" height="1" fill="#717A84" />
<rect x="16" y="19" width="1" height="1" fill="#94A0AD" />
<rect x="17" y="19" width="1" height="1" fill="#94A0AD" />
<rect x="18" y="19" width="1" height="1" fill="#717A84" />
<rect x="19" y="19" width="1" height="1" fill="#717A84" />
<rect x="20" y="19" width="1" height="1" fill="#94A0AD" />
<rect x="21" y="19" width="1" height="1" fill="#94A0AD" />
<rect x="22" y="19" width="1" height="1" fill="#6E3E19" />
<rect x="23" y="19" width="1" height="1" fill="#5A3416" />
<rect x="24" y="19" width="1" height="1" fill="#717A84" />
<rect x="30" y="19" width="1" height="1" fill="#87CEFA" />
<rect x="31" y="19" width="1" height="1" fill="#87CEFA" />
<rect x="32" y="19" width="1" height="1" fill="#87CEFA" />
<rect x="10" y="20" width="1" height="1" fill="#717A84" />
<rect x="11" y="20" width="1" height="1" fill="#6C607B" />
<rect x="12" y="20" width="1" height="1" fill="#94A0AD" />
<rect x="13" y="20" width="1" height="1" fill="#94A0AD" />
<rect x="14" y="20" width="1" height="1" fill="#94A0AD" />
<rect x="15" y="20" width="1" height="1" fill="#717A84" />
<rect x="16" y="20" width="1" height="1" fill="#94A0AD" />
<rect x="17" y="20" width="1" height="1" fill="#94A0AD" />
<rect x="18" y="20" width="1" height="1" fill="#94A0AD" />
<rect x="19" y="20" width="1" height="1" fill="#717A84" />
<rect x="20" y="20" width="1" height="1" fill="#94A0AD" />
<rect x="21" y="20" width="1" height="1" fill="#000000" />
<rect x="22" y="20" width="1" height="1" fill="#72777B" />
<rect x="23" y="20" width="1" height="1" fill="#72777B" />
<rect x="24" y="20" width="1" height="1" fill="#000000" />
<rect x="25" y="20" width="1" height="1" fill="#717A84" />
<rect x="10" y="21" width="1" height="1" fill="#717A84" />
<rect x="11" y="21" width="1" height="1" fill="#6C607B" />
<rect x="12" y="21" width="1" height="1" fill="#94A0AD" />
<rect x="13" y="21" width="1" height="1" fill="#94A0AD" />
<rect x="14" y="21" width="1" height="1" fill="#94A0AD" />
<rect x="15" y="21" width="1" height="1" fill="#87CEFA" />
<rect x="16" y="21" width="1" height="1" fill="#717A84" />
<rect x="17" y="21" width="1" height="1" fill="#717A84" />
<rect x="18" y="21" width="1" height="1" fill="#94A0AD" />
<rect x="19" y="21" width="1" height="1" fill="#000000" />
<rect x="20" y="21" width="1" height="1" fill="#9CA1A4" />
<rect x="21" y="21" width="1" height="1" fill="#83898D" />
<rect x="22" y="21" width="1" height="1" fill="#72777B" />
<rect x="23" y="21" width="1" height="1" fill="#72777B" />
<rect x="24" y="21" width="1" height="1" fill="#83898D" />
<rect x="25" y="21" width="1" height="1" fill="#72777B" />
<rect x="26" y="21" width="1" height="1" fill="#000000" />
<rect x="10" y="22" width="1" height="1" fill="#717A84" />
<rect x="11" y="22" width="1" height="1" fill="#6C607B" />
<rect x="12" y="22" width="1" height="1" fill="#94A0AD" />
<rect x="13" y="22" width="1" height="1" fill="#94A0AD" />
<rect x="14" y="22" width="1" height="1" fill="#87CEFA" />
<rect x="15" y="22" width="1" height="1" fill="#94A0AD" />
<rect x="16" y="22" width="1" height="1" fill="#87CEFA" />
<rect x="17" y="22" width="1" height="1" fill="#94A0AD" />
<rect x="18" y="22" width="1" height="1" fill="#717A84" />
<rect x="19" y="22" width="1" height="1" fill="#72777B" />
<rect x="20" y="22" width="1" height="1" fill="#91979B" />
<rect x="21" y="22" width="1" height="1" fill="#72777B" />
<rect x="22" y="22" width="1" height="1" fill="#83898D" />
<rect x="23" y="22" width="1" height="1" fill="#83898D" />
<rect x="24" y="22" width="1" height="1" fill="#72777B" />
<rect x="25" y="22" width="1" height="1" fill="#91979B" />
<rect x="26" y="22" width="1" height="1" fill="#72777B" />
<rect x="27" y="22" width="1" height="1" fill="#717A84" />
<rect x="10" y="23" width="1" height="1" fill="#717A84" />
<rect x="11" y="23" width="1" height="1" fill="#6C607B" />
<rect x="12" y="23" width="1" height="1" fill="#94A0AD" />
<rect x="13" y="23" width="1" height="1" fill="#94A0AD" />
<rect x="14" y="23" width="1" height="1" fill="#717A84" />
<rect x="15" y="23" width="1" height="1" fill="#94A0AD" />
<rect x="16" y="23" width="1" height="1" fill="#87CEFA" />
<rect x="17" y="23" width="1" height="1" fill="#94A0AD" />
<rect x="18" y="23" width="1" height="1" fill="#94A0AD" />
<rect x="19" y="23" width="1" height="1" fill="#000000" />
<rect x="20" y="23" width="1" height="1" fill="#000000" />
<rect x="21" y="23" width="1" height="1" fill="#72777B" />
<rect x="22" y="23" width="1" height="1" fill="#83898D" />
<rect x="23" y="23" width="1" height="1" fill="#83898D" />
<rect x="24" y="23" width="1" height="1" fill="#72777B" />
<rect x="25" y="23" width="1" height="1" fill="#7D8489" />
<rect x="26" y="23" width="1" height="1" fill="#000000" />
<rect x="27" y="23" width="1" height="1" fill="#94A0AD" />
<rect x="28" y="23" width="1" height="1" fill="#717A84" />
<rect x="30" y="23" width="1" height="1" fill="#87CEFA" />
<rect x="9" y="24" width="1" height="1" fill="#717A84" />
<rect x="10" y="24" width="1" height="1" fill="#6C607B" />
<rect x="11" y="24" width="1" height="1" fill="#6C607B" />
<rect x="12" y="24" width="1" height="1" fill="#94A0AD" />
<rect x="13" y="24" width="1" height="1" fill="#94A0AD" />
<rect x="14" y="24" width="1" height="1" fill="#94A0AD" />
<rect x="15" y="24" width="1" height="1" fill="#717A84" />
<rect x="16" y="24" width="1" height="1" fill="#94A0AD" />
<rect x="17" y="24" width="1" height="1" fill="#94A0AD" />
<rect x="18" y="24" width="1" height="1" fill="#94A0AD" />
<rect x="19" y="24" width="1" height="1" fill="#94A0AD" />
<rect x="20" y="24" width="1" height="1" fill="#94A0AD" />
<rect x="21" y="24" width="1" height="1" fill="#000000" />
<rect x="22" y="24" width="1" height="1" fill="#DFD4D4" />
<rect x="23" y="24" width="1" height="1" fill="#DFD4D4" />
<rect x="24" y="24" width="1" height="1" fill="#000000" />
<rect x="25" y="24" width="1" height="1" fill="#000000" />
<rect x="26" y="24" width="1" height="1" fill="#717A84" />
<rect x="27" y="24" width="1" height="1" fill="#94A0AD" />
<rect x="28" y="24" width="1" height="1" fill="#94A0AD" />
<rect x="29" y="24" width="1" height="1" fill="#717A84" />
<rect x="31" y="24" width="1" height="1" fill="#87CEFA" />
<rect x="32" y="24" width="1" height="1" fill="#87CEFA" />
<rect x="9" y="25" width="1" height="1" fill="#717A84" />
<rect x="10" y="25" width="1" height="1" fill="#6C607B" />
<rect x="11" y="25" width="1" height="1" fill="#6C607B" />
<rect x="12" y="25" width="1" height="1" fill="#94A0AD" />
<rect x="13" y="25" width="1" height="1" fill="#94A0AD" />
<rect x="14" y="25" width="1" height="1" fill="#94A0AD" />
<rect x="15" y="25" width="1" height="1" fill="#717A84" />
<rect x="16" y="25" width="1" height="1" fill="#94A0AD" />
<rect x="17" y="25" width="1" height="1" fill="#94A0AD" />
<rect x="18" y="25" width="1" height="1" fill="#94A0AD" />
<rect x="19" y="25" width="1" height="1" fill="#94A0AD" />
<rect x="20" y="25" width="1" height="1" fill="#717A84" />
<rect x="21" y="25" width="1" height="1" fill="#000000" />
<rect x="22" y="25" width="1" height="1" fill="#DFD4D4" />
<rect x="23" y="25" width="1" height="1" fill="#DFD4D4" />
<rect x="24" y="25" width="1" height="1" fill="#000000" />
<rect x="25" y="25" width="1" height="1" fill="#94A0AD" />
<rect x="26" y="25" width="1" height="1" fill="#94A0AD" />
<rect x="27" y="25" width="1" height="1" fill="#94A0AD" />
<rect x="28" y="25" width="1" height="1" fill="#94A0AD" />
<rect x="29" y="25" width="1" height="1" fill="#94A0AD" />
<rect x="30" y="25" width="1" height="1" fill="#717A84" />
<rect x="33" y="25" width="1" height="1" fill="#87CEFA" />
<rect x="9" y="26" width="1" height="1" fill="#717A84" />
<rect x="10" y="26" width="1" height="1" fill="#6C607B" />
<rect x="11" y="26" width="1" height="1" fill="#6C607B" />
<rect x="12" y="26" width="1" height="1" fill="#94A0AD" />
<rect x="13" y="26" width="1" height="1" fill="#94A0AD" />
<rect x="14" y="26" width="1" height="1" fill="#94A0AD" />
<rect x="15" y="26" width="1" height="1" fill="#717A84" />
<rect x="16" y="26" width="1" height="1" fill="#94A0AD" />
<rect x="17" y="26" width="1" height="1" fill="#94A0AD" />
<rect x="18" y="26" width="1" height="1" fill="#94A0AD" />
<rect x="19" y="26" width="1" height="1" fill="#94A0AD" />
<rect x="20" y="26" width="1" height="1" fill="#717A84" />
<rect x="21" y="26" width="1" height="1" fill="#000000" />
<rect x="22" y="26" width="1" height="1" fill="#DFD4D4" />
<rect x="23" y="26" width="1" height="1" fill="#DFD4D4" />
<rect x="24" y="26" width="1" height="1" fill="#000000" />
<rect x="25" y="26" width="1" height="1" fill="#94A0AD" />
<rect x="26" y="26" width="1" height="1" fill="#94A0AD" />
<rect x="27" y="26" width="1" height="1" fill="#94A0AD" />
<rect x="28" y="26" width="1" height="1" fill="#94A0AD" />
<rect x="29" y="26" width="1" height="1" fill="#717A84" />
<rect x="30" y="26" width="1" height="1" fill="#94A0AD" />
<rect x="31" y="26" width="1" height="1" fill="#717A84" />
<rect x="34" y="26" width="1" height="1" fill="#87CEFA" />
<rect x="9" y="27" width="1" height="1" fill="#717A84" />
<rect x="10" y="27" width="1" height="1" fill="#6C607B" />
<rect x="11" y="27" width="1" height="1" fill="#6C607B" />
<rect x="12" y="27" width="1" height="1" fill="#94A0AD" />
<rect x="13" y="27" width="1" height="1" fill="#94A0AD" />
<rect x="14" y="27" width="1" height="1" fill="#94A0AD" />
<rect x="15" y="27" width="1" height="1" fill="#94A0AD" />
<rect x="16" y="27" width="1" height="1" fill="#717A84" />
<rect x="17" y="27" width="1" height="1" fill="#94A0AD" />
<rect x="18" y="27" width="1" height="1" fill="#94A0AD" />
<rect x="19" y="27" width="1" height="1" fill="#94A0AD" />
<rect x="20" y="27" width="1" height="1" fill="#717A84" />
<rect x="21" y="27" width="1" height="1" fill="#000000" />
<rect x="22" y="27" width="1" height="1" fill="#DFD4D4" />
<rect x="23" y="27" width="1" height="1" fill="#DFD4D4" />
<rect x="24" y="27" width="1" height="1" fill="#000000" />
<rect x="25" y="27" width="1" height="1" fill="#94A0AD" />
<rect x="26" y="27" width="1" height="1" fill="#94A0AD" />
<rect x="27" y="27" width="1" height="1" fill="#94A0AD" />
<rect x="28" y="27" width="1" height="1" fill="#94A0AD" />
<rect x="29" y="27" width="1" height="1" fill="#94A0AD" />
<rect x="30" y="27" width="1" height="1" fill="#717A84" />
<rect x="31" y="27" width="1" height="1" fill="#717A84" />
<rect x="9" y="28" width="1" height="1" fill="#717A84" />
<rect x="10" y="28" width="1" height="1" fill="#6C607B" />
<rect x="11" y="28" width="1" height="1" fill="#6C607B" />
<rect x="12" y="28" width="1" height="1" fill="#6C607B" />
<rect x="13" y="28" width="1" height="1" fill="#94A0AD" />
<rect x="14" y="28" width="1" height="1" fill="#94A0AD" />
<rect x="15" y="28" width="1" height="1" fill="#87CEFA" />
<rect x="16" y="28" width="1" height="1" fill="#87CEFA" />
<rect x="17" y="28" width="1" height="1" fill="#87CEFA" />
<rect x="18" y="28" width="1" height="1" fill="#87CEFA" />
<rect x="19" y="28" width="1" height="1" fill="#94A0AD" />
<rect x="20" y="28" width="1" height="1" fill="#94A0AD" />
<rect x="21" y="28" width="1" height="1" fill="#000000" />
<rect x="22" y="28" width="1" height="1" fill="#DFD4D4" />
<rect x="23" y="28" width="1" height="1" fill="#DFD4D4" />
<rect x="24" y="28" width="1" height="1" fill="#000000" />
<rect x="25" y="28" width="1" height="1" fill="#94A0AD" />
<rect x="26" y="28" width="1" height="1" fill="#94A0AD" />
<rect x="27" y="28" width="1" height="1" fill="#717A84" />
<rect x="28" y="28" width="1" height="1" fill="#717A84" />
<rect x="29" y="28" width="1" height="1" fill="#94A0AD" />
<rect x="30" y="28" width="1" height="1" fill="#717A84" />
<rect x="31" y="28" width="1" height="1" fill="#94A0AD" />
<rect x="32" y="28" width="1" height="1" fill="#717A84" />
<rect x="9" y="29" width="1" height="1" fill="#717A84" />
<rect x="10" y="29" width="1" height="1" fill="#6C607B" />
<rect x="11" y="29" width="1" height="1" fill="#6C607B" />
<rect x="12" y="29" width="1" height="1" fill="#6C607B" />
<rect x="13" y="29" width="1" height="1" fill="#94A0AD" />
<rect x="14" y="29" width="1" height="1" fill="#87CEFA" />
<rect x="15" y="29" width="1" height="1" fill="#94A0AD" />
<rect x="16" y="29" width="1" height="1" fill="#717A84" />
<rect x="17" y="29" width="1" height="1" fill="#94A0AD" />
<rect x="18" y="29" width="1" height="1" fill="#94A0AD" />
<rect x="19" y="29" width="1" height="1" fill="#94A0AD" />
<rect x="20" y="29" width="1" height="1" fill="#94A0AD" />
<rect x="21" y="29" width="1" height="1" fill="#000000" />
<rect x="22" y="29" width="1" height="1" fill="#DFD4D4" />
<rect x="23" y="29" width="1" height="1" fill="#DFD4D4" />
<rect x="24" y="29" width="1" height="1" fill="#000000" />
<rect x="25" y="29" width="1" height="1" fill="#94A0AD" />
<rect x="26" y="29" width="1" height="1" fill="#94A0AD" />
<rect x="27" y="29" width="1" height="1" fill="#94A0AD" />
<rect x="28" y="29" width="1" height="1" fill="#94A0AD" />
<rect x="29" y="29" width="1" height="1" fill="#717A84" />
<rect x="30" y="29" width="1" height="1" fill="#717A84" />
<rect x="31" y="29" width="1" height="1" fill="#94A0AD" />
<rect x="32" y="29" width="1" height="1" fill="#94A0AD" />
<rect x="33" y="29" width="1" height="1" fill="#717A84" />
<rect x="9" y="30" width="1" height="1" fill="#717A84" />
<rect x="10" y="30" width="1" height="1" fill="#717A84" />
<rect x="11" y="30" width="1" height="1" fill="#6C607B" />
<rect x="12" y="30" width="1" height="1" fill="#6C607B" />
<rect x="13" y="30" width="1" height="1" fill="#94A0AD" />
<rect x="14" y="30" width="1" height="1" fill="#94A0AD" />
<rect x="15" y="30" width="1" height="1" fill="#94A0AD" />
<rect x="16" y="30" width="1" height="1" fill="#94A0AD" />
<rect x="17" y="30" width="1" height="1" fill="#717A84" />
<rect x="18" y="30" width="1" height="1" fill="#94A0AD" />
<rect x="19" y="30" width="1" height="1" fill="#94A0AD" />
<rect x="20" y="30" width="1" height="1" fill="#94A0AD" />
<rect x="21" y="30" width="1" height="1" fill="#94A0AD" />
<rect x="22" y="30" width="1" height="1" fill="#94A0AD" />
<rect x="23" y="30" width="1" height="1" fill="#717A84" />
<rect x="24" y="30" width="1" height="1" fill="#717A84" />
<rect x="25" y="30" width="1" height="1" fill="#717A84" />
<rect x="26" y="30" width="1" height="1" fill="#94A0AD" />
<rect x="27" y="30" width="1" height="1" fill="#94A0AD" />
<rect x="28" y="30" width="1" height="1" fill="#94A0AD" />
<rect x="29" y="30" width="1" height="1" fill="#94A0AD" />
<rect x="30" y="30" width="1" height="1" fill="#717A84" />
<rect x="31" y="30" width="1" height="1" fill="#94A0AD" />
<rect x="32" y="30" width="1" height="1" fill="#94A0AD" />
<rect x="33" y="30" width="1" height="1" fill="#717A84" />
<rect x="10" y="31" width="1" height="1" fill="#717A84" />
<rect x="11" y="31" width="1" height="1" fill="#6C607B" />
<rect x="12" y="31" width="1" height="1" fill="#6C607B" />
<rect x="13" y="31" width="1" height="1" fill="#94A0AD" />
<rect x="14" y="31" width="1" height="1" fill="#94A0AD" />
<rect x="15" y="31" width="1" height="1" fill="#94A0AD" />
<rect x="16" y="31" width="1" height="1" fill="#94A0AD" />
<rect x="17" y="31" width="1" height="1" fill="#717A84" />
<rect x="18" y="31" width="1" height="1" fill="#94A0AD" />
<rect x="19" y="31" width="1" height="1" fill="#94A0AD" />
<rect x="20" y="31" width="1" height="1" fill="#94A0AD" />
<rect x="21" y="31" width="1" height="1" fill="#94A0AD" />
<rect x="22" y="31" width="1" height="1" fill="#94A0AD" />
<rect x="23" y="31" width="1" height="1" fill="#717A84" />
<rect x="24" y="31" width="1" height="1" fill="#94A0AD" />
<rect x="25" y="31" width="1" height="1" fill="#94A0AD" />
<rect x="26" y="31" width="1" height="1" fill="#717A84" />
<rect x="27" y="31" width="1" height="1" fill="#94A0AD" />
<rect x="28" y="31" width="1" height="1" fill="#94A0AD" />
<rect x="29" y="31" width="1" height="1" fill="#94A0AD" />
<rect x="30" y="31" width="1" height="1" fill="#717A84" />
<rect x="31" y="31" width="1" height="1" fill="#94A0AD" />
<rect x="32" y="31" width="1" height="1" fill="#94A0AD" />
<rect x="33" y="31" width="1" height="1" fill="#94A0AD" />
<rect x="34" y="31" width="1" height="1" fill="#717A84" />
<rect x="10" y="32" width="1" height="1" fill="#717A84" />
<rect x="11" y="32" width="1" height="1" fill="#6C607B" />
<rect x="12" y="32" width="1" height="1" fill="#6C607B" />
<rect x="13" y="32" width="1" height="1" fill="#6C607B" />
<rect x="14" y="32" width="1" height="1" fill="#94A0AD" />
<rect x="15" y="32" width="1" height="1" fill="#94A0AD" />
<rect x="16" y="32" width="1" height="1" fill="#94A0AD" />
<rect x="17" y="32" width="1" height="1" fill="#94A0AD" />
<rect x="18" y="32" width="1" height="1" fill="#717A84" />
<rect x="19" y="32" width="1" height="1" fill="#87CEFA" />
<rect x="20" y="32" width="1" height="1" fill="#87CEFA" />
<rect x="21" y="32" width="1" height="1" fill="#94A0AD" />
<rect x="22" y="32" width="1" height="1" fill="#94A0AD" />
<rect x="23" y="32" width="1" height="1" fill="#717A84" />
<rect x="24" y="32" width="1" height="1" fill="#717A84" />
<rect x="25" y="32" width="1" height="1" fill="#94A0AD" />
<rect x="26" y="32" width="1" height="1" fill="#94A0AD" />
<rect x="27" y="32" width="1" height="1" fill="#87CEFA" />
<rect x="28" y="32" width="1" height="1" fill="#717A84" />
<rect x="29" y="32" width="1" height="1" fill="#717A84" />
<rect x="30" y="32" width="1" height="1" fill="#717A84" />
<rect x="31" y="32" width="1" height="1" fill="#87CEFA" />
<rect x="32" y="32" width="1" height="1" fill="#94A0AD" />
<rect x="33" y="32" width="1" height="1" fill="#94A0AD" />
<rect x="34" y="32" width="1" height="1" fill="#717A84" />
<rect x="11" y="33" width="1" height="1" fill="#717A84" />
<rect x="12" y="33" width="1" height="1" fill="#6C607B" />
<rect x="13" y="33" width="1" height="1" fill="#6C607B" />
<rect x="14" y="33" width="1" height="1" fill="#6C607B" />
<rect x="15" y="33" width="1" height="1" fill="#94A0AD" />
<rect x="16" y="33" width="1" height="1" fill="#94A0AD" />
<rect x="17" y="33" width="1" height="1" fill="#94A0AD" />
<rect x="18" y="33" width="1" height="1" fill="#87CEFA" />
<rect x="19" y="33" width="1" height="1" fill="#94A0AD" />
<rect x="20" y="33" width="1" height="1" fill="#94A0AD" />
<rect x="21" y="33" width="1" height="1" fill="#94A0AD" />
<rect x="22" y="33" width="1" height="1" fill="#94A0AD" />
<rect x="23" y="33" width="1" height="1" fill="#717A84" />
<rect x="24" y="33" width="1" height="1" fill="#94A0AD" />
<rect x="25" y="33" width="1" height="1" fill="#717A84" />
<rect x="26" y="33" width="1" height="1" fill="#94A0AD" />
<rect x="27" y="33" width="1" height="1" fill="#87CEFA" />
<rect x="28" y="33" width="1" height="1" fill="#94A0AD" />
<rect x="29" y="33" width="1" height="1" fill="#94A0AD" />
<rect x="30" y="33" width="1" height="1" fill="#717A84" />
<rect x="31" y="33" width="1" height="1" fill="#94A0AD" />
<rect x="32" y="33" width="1" height="1" fill="#87CEFA" />
<rect x="33" y="33" width="1" height="1" fill="#94A0AD" />
<rect x="34" y="33" width="1" height="1" fill="#94A0AD" />
<rect x="35" y="33" width="1" height="1" fill="#717A84" />
<rect x="12" y="34" width="1" height="1" fill="#717A84" />
<rect x="13" y="34" width="1" height="1" fill="#6C607B" />
<rect x="14" y="34" width="1" height="1" fill="#6C607B" />
<rect x="15" y="34" width="1" height="1" fill="#6C607B" />
<rect x="16" y="34" width="1" height="1" fill="#94A0AD" />
<rect x="17" y="34" width="1" height="1" fill="#94A0AD" />
<rect x="18" y="34" width="1" height="1" fill="#94A0AD" />
<rect x="19" y="34" width="1" height="1" fill="#717A84" />
<rect x="20" y="34" width="1" height="1" fill="#94A0AD" />
<rect x="21" y="34" width="1" height="1" fill="#94A0AD" />
<rect x="22" y="34" width="1" height="1" fill="#94A0AD" />
<rect x="23" y="34" width="1" height="1" fill="#94A0AD" />
<rect x="24" y="34" width="1" height="1" fill="#717A84" />
<rect x="25" y="34" width="1" height="1" fill="#94A0AD" />
<rect x="26" y="34" width="1" height="1" fill="#717A84" />
<rect x="27" y="34" width="1" height="1" fill="#717A84" />
<rect x="28" y="34" width="1" height="1" fill="#87CEFA" />
<rect x="29" y="34" width="1" height="1" fill="#717A84" />
<rect x="30" y="34" width="1" height="1" fill="#717A84" />
<rect x="31" y="34" width="1" height="1" fill="#94A0AD" />
<rect x="32" y="34" width="1" height="1" fill="#94A0AD" />
<rect x="33" y="34" width="1" height="1" fill="#94A0AD" />
<rect x="34" y="34" width="1" height="1" fill="#94A0AD" />
<rect x="35" y="34" width="1" height="1" fill="#94A0AD" />
<rect x="36" y="34" width="1" height="1" fill="#717A84" />
<rect x="13" y="35" width="1" height="1" fill="#717A84" />
<rect x="14" y="35" width="1" height="1" fill="#6C607B" />
<rect x="15" y="35" width="1" height="1" fill="#6C607B" />
<rect x="16" y="35" width="1" height="1" fill="#94A0AD" />
<rect x="17" y="35" width="1" height="1" fill="#94A0AD" />
<rect x="18" y="35" width="1" height="1" fill="#94A0AD" />
<rect x="19" y="35" width="1" height="1" fill="#717A84" />
<rect x="20" y="35" width="1" height="1" fill="#94A0AD" />
<rect x="21" y="35" width="1" height="1" fill="#94A0AD" />
<rect x="22" y="35" width="1" height="1" fill="#94A0AD" />
<rect x="23" y="35" width="1" height="1" fill="#94A0AD" />
<rect x="24" y="35" width="1" height="1" fill="#717A84" />
<rect x="25" y="35" width="1" height="1" fill="#94A0AD" />
<rect x="26" y="35" width="1" height="1" fill="#94A0AD" />
<rect x="27" y="35" width="1" height="1" fill="#94A0AD" />
<rect x="28" y="35" width="1" height="1" fill="#94A0AD" />
<rect x="29" y="35" width="1" height="1" fill="#94A0AD" />
<rect x="30" y="35" width="1" height="1" fill="#717A84" />
<rect x="31" y="35" width="1" height="1" fill="#717A84" />
<rect x="32" y="35" width="1" height="1" fill="#717A84" />
<rect x="33" y="35" width="1" height="1" fill="#94A0AD" />
<rect x="34" y="35" width="1" height="1" fill="#94A0AD" />
<rect x="35" y="35" width="1" height="1" fill="#94A0AD" />
<rect x="36" y="35" width="1" height="1" fill="#717A84" />
<rect x="13" y="36" width="1" height="1" fill="#717A84" />
<rect x="14" y="36" width="1" height="1" fill="#6C607B" />
<rect x="15" y="36" width="1" height="1" fill="#6C607B" />
<rect x="16" y="36" width="1" height="1" fill="#6C607B" />
<rect x="17" y="36" width="1" height="1" fill="#94A0AD" />
<rect x="18" y="36" width="1" height="1" fill="#94A0AD" />
<rect x="19" y="36" width="1" height="1" fill="#717A84" />
<rect x="20" y="36" width="1" height="1" fill="#94A0AD" />
<rect x="21" y="36" width="1" height="1" fill="#94A0AD" />
<rect x="22" y="36" width="1" height="1" fill="#94A0AD" />
<rect x="23" y="36" width="1" height="1" fill="#94A0AD" />
<rect x="24" y="36" width="1" height="1" fill="#94A0AD" />
<rect x="25" y="36" width="1" height="1" fill="#717A84" />
<rect x="26" y="36" width="1" height="1" fill="#94A0AD" />
<rect x="27" y="36" width="1" height="1" fill="#94A0AD" />
<rect x="28" y="36" width="1" height="1" fill="#94A0AD" />
<rect x="29" y="36" width="1" height="1" fill="#94A0AD" />
<rect x="30" y="36" width="1" height="1" fill="#717A84" />
<rect x="31" y="36" width="1" height="1" fill="#94A0AD" />
<rect x="32" y="36" width="1" height="1" fill="#94A0AD" />
<rect x="33" y="36" width="1" height="1" fill="#717A84" />
<rect x="34" y="36" width="1" height="1" fill="#717A84" />
<rect x="35" y="36" width="1" height="1" fill="#94A0AD" />
<rect x="36" y="36" width="1" height="1" fill="#94A0AD" />
<rect x="37" y="36" width="1" height="1" fill="#717A84" />
<rect x="13" y="37" width="1" height="1" fill="#717A84" />
<rect x="14" y="37" width="1" height="1" fill="#717A84" />
<rect x="15" y="37" width="1" height="1" fill="#6C607B" />
<rect x="16" y="37" width="1" height="1" fill="#6C607B" />
<rect x="17" y="37" width="1" height="1" fill="#94A0AD" />
<rect x="18" y="37" width="1" height="1" fill="#94A0AD" />
<rect x="19" y="37" width="1" height="1" fill="#717A84" />
<rect x="20" y="37" width="1" height="1" fill="#94A0AD" />
<rect x="21" y="37" width="1" height="1" fill="#94A0AD" />
<rect x="22" y="37" width="1" height="1" fill="#94A0AD" />
<rect x="23" y="37" width="1" height="1" fill="#94A0AD" />
<rect x="24" y="37" width="1" height="1" fill="#94A0AD" />
<rect x="25" y="37" width="1" height="1" fill="#717A84" />
<rect x="26" y="37" width="1" height="1" fill="#94A0AD" />
<rect x="27" y="37" width="1" height="1" fill="#94A0AD" />
<rect x="28" y="37" width="1" height="1" fill="#94A0AD" />
<rect x="29" y="37" width="1" height="1" fill="#94A0AD" />
<rect x="30" y="37" width="1" height="1" fill="#717A84" />
<rect x="31" y="37" width="1" height="1" fill="#94A0AD" />
<rect x="32" y="37" width="1" height="1" fill="#94A0AD" />
<rect x="33" y="37" width="1" height="1" fill="#94A0AD" />
<rect x="34" y="37" width="1" height="1" fill="#94A0AD" />
<rect x="35" y="37" width="1" height="1" fill="#717A84" />
<rect x="36" y="37" width="1" height="1" fill="#717A84" />
<rect x="37" y="37" width="1" height="1" fill="#717A84" />
<rect x="13" y="38" width="1" height="1" fill="#717A84" />
<rect x="14" y="38" width="1" height="1" fill="#6C607B" />
<rect x="15" y="38" width="1" height="1" fill="#6C607B" />
<rect x="16" y="38" width="1" height="1" fill="#6C607B" />
<rect x="17" y="38" width="1" height="1" fill="#94A0AD" />
<rect x="18" y="38" width="1" height="1" fill="#94A0AD" />
<rect x="19" y="38" width="1" height="1" fill="#717A84" />
<rect x="20" y="38" width="1" height="1" fill="#94A0AD" />
<rect x="21" y="38" width="1" height="1" fill="#94A0AD" />
<rect x="22" y="38" width="1" height="1" fill="#94A0AD" />
<rect x="23" y="38" width="1" height="1" fill="#94A0AD" />
<rect x="24" y="38" width="1" height="1" fill="#94A0AD" />
<rect x="25" y="38" width="1" height="1" fill="#717A84" />
<rect x="26" y="38" width="1" height="1" fill="#94A0AD" />
<rect x="27" y="38" width="1" height="1" fill="#94A0AD" />
<rect x="28" y="38" width="1" height="1" fill="#94A0AD" />
<rect x="29" y="38" width="1" height="1" fill="#94A0AD" />
<rect x="30" y="38" width="1" height="1" fill="#717A84" />
<rect x="31" y="38" width="1" height="1" fill="#94A0AD" />
<rect x="32" y="38" width="1" height="1" fill="#94A0AD" />
<rect x="33" y="38" width="1" height="1" fill="#94A0AD" />
<rect x="34" y="38" width="1" height="1" fill="#717A84" />
<rect x="35" y="38" width="1" height="1" fill="#717A84" />
<rect x="36" y="38" width="1" height="1" fill="#94A0AD" />
<rect x="37" y="38" width="1" height="1" fill="#94A0AD" />
<rect x="38" y="38" width="1" height="1" fill="#717A84" />
<rect x="10" y="39" width="1" height="1" fill="#717A84" />
<rect x="11" y="39" width="1" height="1" fill="#717A84" />
<rect x="12" y="39" width="1" height="1" fill="#717A84" />
<rect x="13" y="39" width="1" height="1" fill="#6C607B" />
<rect x="14" y="39" width="1" height="1" fill="#94A0AD" />
<rect x="15" y="39" width="1" height="1" fill="#94A0AD" />
<rect x="16" y="39" width="1" height="1" fill="#94A0AD" />
<rect x="17" y="39" width="1" height="1" fill="#717A84" />
<rect x="18" y="39" width="1" height="1" fill="#717A84" />
<rect x="19" y="39" width="1" height="1" fill="#717A84" />
<rect x="20" y="39" width="1" height="1" fill="#94A0AD" />
<rect x="21" y="39" width="1" height="1" fill="#94A0AD" />
<rect x="22" y="39" width="1" height="1" fill="#94A0AD" />
<rect x="23" y="39" width="1" height="1" fill="#94A0AD" />
<rect x="24" y="39" width="1" height="1" fill="#94A0AD" />
<rect x="25" y="39" width="1" height="1" fill="#717A84" />
<rect x="26" y="39" width="1" height="1" fill="#94A0AD" />
<rect x="27" y="39" width="1" height="1" fill="#94A0AD" />
<rect x="28" y="39" width="1" height="1" fill="#94A0AD" />
<rect x="29" y="39" width="1" height="1" fill="#717A84" />
<rect x="30" y="39" width="1" height="1" fill="#94A0AD" />
<rect x="31" y="39" width="1" height="1" fill="#94A0AD" />
<rect x="32" y="39" width="1" height="1" fill="#717A84" />
<rect x="33" y="39" width="1" height="1" fill="#717A84" />
<rect x="34" y="39" width="1" height="1" fill="#94A0AD" />
<rect x="35" y="39" width="1" height="1" fill="#94A0AD" />
<rect x="36" y="39" width="1" height="1" fill="#717A84" />
<rect x="37" y="39" width="1" height="1" fill="#94A0AD" />
<rect x="38" y="39" width="1" height="1" fill="#717A84" />
<rect x="7" y="40" width="1" height="1" fill="#717A84" />
<rect x="8" y="40" width="1" height="1" fill="#717A84" />
<rect x="9" y="40" width="1" height="1" fill="#717A84" />
<rect x="10" y="40" width="1" height="1" fill="#6C607B" />
<rect x="11" y="40" width="1" height="1" fill="#6C607B" />
<rect x="12" y="40" width="1" height="1" fill="#6C607B" />
<rect x="13" y="40" width="1" height="1" fill="#94A0AD" />
<rect x="14" y="40" width="1" height="1" fill="#94A0AD" />
<rect x="15" y="40" width="1" height="1" fill="#94A0AD" />
<rect x="16" y="40" width="1" height="1" fill="#717A84" />
<rect x="17" y="40" width="1" height="1" fill="#717A84" />
<rect x="18" y="40" width="1" height="1" fill="#94A0AD" />
<rect x="19" y="40" width="1" height="1" fill="#94A0AD" />
<rect x="20" y="40" width="1" height="1" fill="#94A0AD" />
<rect x="21" y="40" width="1" height="1" fill="#6C607B" />
<rect x="22" y="40" width="1" height="1" fill="#6C607B" />
<rect x="23" y="40" width="1" height="1" fill="#94A0AD" />
<rect x="24" y="40" width="1" height="1" fill="#94A0AD" />
<rect x="25" y="40" width="1" height="1" fill="#717A84" />
<rect x="26" y="40" width="1" height="1" fill="#717A84" />
<rect x="27" y="40" width="1" height="1" fill="#717A84" />
<rect x="28" y="40" width="1" height="1" fill="#717A84" />
<rect x="29" y="40" width="1" height="1" fill="#94A0AD" />
<rect x="30" y="40" width="1" height="1" fill="#94A0AD" />
<rect x="31" y="40" width="1" height="1" fill="#717A84" />
<rect x="32" y="40" width="1" height="1" fill="#94A0AD" />
<rect x="33" y="40" width="1" height="1" fill="#94A0AD" />
<rect x="34" y="40" width="1" height="1" fill="#94A0AD" />
<rect x="35" y="40" width="1" height="1" fill="#94A0AD" />
<rect x="36" y="40" width="1" height="1" fill="#94A0AD" />
<rect x="37" y="40" width="1" height="1" fill="#717A84" />
<rect x="38" y="40" width="1" height="1" fill="#717A84" />
<rect x="39" y="40" width="1" height="1" fill="#717A84" />
<rect x="6" y="41" width="1" height="1" fill="#717A84" />
<rect x="7" y="41" width="1" height="1" fill="#6C607B" />
<rect x="8" y="41" width="1" height="1" fill="#6C607B" />
<rect x="9" y="41" width="1" height="1" fill="#6C607B" />
<rect x="10" y="41" width="1" height="1" fill="#6C607B" />
<rect x="11" y="41" width="1" height="1" fill="#6C607B" />
<rect x="12" y="41" width="1" height="1" fill="#6C607B" />
<rect x="13" y="41" width="1" height="1" fill="#94A0AD" />
<rect x="14" y="41" width="1" height="1" fill="#94A0AD" />
<rect x="15" y="41" width="1" height="1" fill="#94A0AD" />
<rect x="16" y="41" width="1" height="1" fill="#717A84" />
<rect x="17" y="41" width="1" height="1" fill="#717A84" />
<rect x="18" y="41" width="1" height="1" fill="#94A0AD" />
<rect x="19" y="41" width="1" height="1" fill="#94A0AD" />
<rect x="20" y="41" width="1" height="1" fill="#6C607B" />
<rect x="21" y="41" width="1" height="1" fill="#94A0AD" />
<rect x="22" y="41" width="1" height="1" fill="#94A0AD" />
<rect x="23" y="41" width="1" height="1" fill="#94A0AD" />
<rect x="24" y="41" width="1" height="1" fill="#94A0AD" />
<rect x="25" y="41" width="1" height="1" fill="#94A0AD" />
<rect x="26" y="41" width="1" height="1" fill="#94A0AD" />
<rect x="27" y="41" width="1" height="1" fill="#94A0AD" />
<rect x="28" y="41" width="1" height="1" fill="#94A0AD" />
<rect x="29" y="41" width="1" height="1" fill="#94A0AD" />
<rect x="30" y="41" width="1" height="1" fill="#717A84" />
<rect x="31" y="41" width="1" height="1" fill="#94A0AD" />
<rect x="32" y="41" width="1" height="1" fill="#94A0AD" />
<rect x="33" y="41" width="1" height="1" fill="#94A0AD" />
<rect x="34" y="41" width="1" height="1" fill="#94A0AD" />
<rect x="35" y="41" width="1" height="1" fill="#94A0AD" />
<rect x="36" y="41" width="1" height="1" fill="#94A0AD" />
<rect x="37" y="41" width="1" height="1" fill="#94A0AD" />
<rect x="38" y="41" width="1" height="1" fill="#717A84" />
<rect x="39" y="41" width="1" height="1" fill="#717A84" />
<rect x="6" y="42" width="1" height="1" fill="#717A84" />
<rect x="7" y="42" width="1" height="1" fill="#6C607B" />
<rect x="8" y="42" width="1" height="1" fill="#6C607B" />
<rect x="9" y="42" width="1" height="1" fill="#6C607B" />
<rect x="10" y="42" width="1" height="1" fill="#6C607B" />
<rect x="11" y="42" width="1" height="1" fill="#6C607B" />
<rect x="12" y="42" width="1" height="1" fill="#6C607B" />
<rect x="13" y="42" width="1" height="1" fill="#6C607B" />
<rect x="14" y="42" width="1" height="1" fill="#6C607B" />
<rect x="15" y="42" width="1" height="1" fill="#6C607B" />
<rect x="16" y="42" width="1" height="1" fill="#6C607B" />
<rect x="17" y="42" width="1" height="1" fill="#6C607B" />
<rect x="18" y="42" width="1" height="1" fill="#6C607B" />
<rect x="19" y="42" width="1" height="1" fill="#6C607B" />
<rect x="20" y="42" width="1" height="1" fill="#6C607B" />
<rect x="21" y="42" width="1" height="1" fill="#94A0AD" />
<rect x="22" y="42" width="1" height="1" fill="#94A0AD" />
<rect x="23" y="42" width="1" height="1" fill="#94A0AD" />
<rect x="24" y="42" width="1" height="1" fill="#94A0AD" />
<rect x="25" y="42" width="1" height="1" fill="#94A0AD" />
<rect x="26" y="42" width="1" height="1" fill="#94A0AD" />
<rect x="27" y="42" width="1" height="1" fill="#94A0AD" />
<rect x="28" y="42" width="1" height="1" fill="#94A0AD" />
<rect x="29" y="42" width="1" height="1" fill="#717A84" />
<rect x="30" y="42" width="1" height="1" fill="#94A0AD" />
<rect x="31" y="42" width="1" height="1" fill="#94A0AD" />
<rect x="32" y="42" width="1" height="1" fill="#94A0AD" />
<rect x="33" y="42" width="1" height="1" fill="#94A0AD" />
<rect x="34" y="42" width="1" height="1" fill="#94A0AD" />
<rect x="35" y="42" width="1" height="1" fill="#94A0AD" />
<rect x="36" y="42" width="1" height="1" fill="#94A0AD" />
<rect x="37" y="42" width="1" height="1" fill="#94A0AD" />
<rect x="38" y="42" width="1" height="1" fill="#717A84" />
<rect x="39" y="42" width="1" height="1" fill="#717A84" />
<rect x="40" y="42" width="1" height="1" fill="#717A84" />
<rect x="7" y="43" width="1" height="1" fill="#717A84" />
<rect x="8" y="43" width="1" height="1" fill="#717A84" />
<rect x="9" y="43" width="1" height="1" fill="#717A84" />
<rect x="10" y="43" width="1" height="1" fill="#717A84" />
<rect x="11" y="43" width="1" height="1" fill="#717A84" />
<rect x="12" y="43" width="1" height="1" fill="#717A84" />
<rect x="13" y="43" width="1" height="1" fill="#717A84" />
<rect x="14" y="43" width="1" height="1" fill="#717A84" />
<rect x="15" y="43" width="1" height="1" fill="#717A84" />
<rect x="16" y="43" width="1" height="1" fill="#717A84" />
<rect x="17" y="43" width="1" height="1" fill="#717A84" />
<rect x="18" y="43" width="1" height="1" fill="#717A84" />
<rect x="19" y="43" width="1" height="1" fill="#717A84" />
<rect x="20" y="43" width="1" height="1" fill="#717A84" />
<rect x="21" y="43" width="1" height="1" fill="#717A84" />
<rect x="22" y="43" width="1" height="1" fill="#717A84" />
<rect x="23" y="43" width="1" height="1" fill="#717A84" />
<rect x="24" y="43" width="1" height="1" fill="#717A84" />
<rect x="25" y="43" width="1" height="1" fill="#717A84" />
<rect x="26" y="43" width="1" height="1" fill="#717A84" />
<rect x="27" y="43" width="1" height="1" fill="#717A84" />
<rect x="28" y="43" width="1" height="1" fill="#717A84" />
<rect x="29" y="43" width="1" height="1" fill="#717A84" />
<rect x="30" y="43" width="1" height="1" fill="#717A84" />
<rect x="31" y="43" width="1" height="1" fill="#717A84" />
<rect x="32" y="43" width="1" height="1" fill="#717A84" />
<rect x="33" y="43" width="1" height="1" fill="#717A84" />
<rect x="34" y="43" width="1" height="1" fill="#717A84" />
<rect x="35" y="43" width="1" height="1" fill="#717A84" />
<rect x="36" y="43" width="1" height="1" fill="#717A84" />
<rect x="37" y="43" width="1" height="1" fill="#717A84" />
<rect x="38" y="43" width="1" height="1" fill="#717A84" />
<rect x="39" y="43" width="1" height="1" fill="#717A84" />
<rect x="40" y="43" width="1" height="1" fill="#717A84" />
</svg>