<?xml version="1.0" encoding="UTF-8" ?>
<svg version="1.1" width="64" height="64" xmlns="http://www.w3.org/2000/svg" shape-rendering="crispEdges">
<rect x="21" y="5" width="1" height="1" fill="#87CEFA" />
<rect x="22" y="5" width="1" height="1" fill="#87CEFA" />
<rect x="23" y="5" width="1" height="1" fill="#87CEFA" />
<rect x="24" y="5" width="1" height="1" fill="#87CEFA" />
<rect x="21" y="6" width="1" height="1" fill="#87CEFA" />
<rect x="22" y="6" width="1" height="1" fill="#87CEFA" />
<rect x="23" y="6" width="1" height="1" fill="#87CEFA" />
<rect x="24" y="6" width="1" height="1" fill="#87CEFA" />
<rect x="22" y="7" width="1" height="1" fill="#87CEFA" />
<rect x="23" y="7" width="1" height="1" fill="#87CEFA" />
<rect x="22" y="8" width="1" height="1" fill="#87CEFA" />
<rect x="23" y="8" width="1" height="1" fill="#87CEFA" />
<rect x="22" y="9" width="1" height="1" fill="#87CEFA" />
<rect x="23" y="9" width="1" height="1" fill="#87CEFA" />
<rect x="22" y="10" width="1" height="1" fill="#87CEFA" />
<rect x="23" y="10" width="1" height="1" fill="#87CEFA" />
<rect x="22" y="11" width="1" height="1" fill="#87CEFA" />
<rect x="23" y="11" width="1" height="1" fill="#87CEFA" />
<rect x="22" y="12" width="1" height="1" fill="#87CEFA" />
<rect x="23" y="12" width="1" height="1" fill="#87CEFA" />
<rect x="21" y="13" width="1" height="1" fill="#87CEFA" />
<rect x="22" y="13" width="1" height="1" fill="#87CEFA" />
<rect x="23" y="13" width="1" height="1" fill="#87CEFA" />
<rect x="24" y="13" width="1" height="1" fill="#87CEFA" />
<rect x="18" y="14" width="1" height="1" fill="#87CEFA" />
<rect x="19" y="14" width="1" height="1" fill="#87CEFA" />
<rect x="20" y="14" width="1" height="1" fill="#87CEFA" />
<rect x="21" y="14" width="1" height="1" fill="#87CEFA" />
<rect x="22" y="14" width="1" height="1" fill="#87CEFA" />
<rect x="23" y="14" width="1" height="1" fill="#87CEFA" />
<rect x="24" y="14" width="1" height="1" fill="#87CEFA" />
<rect x="25" y="14" width="1" height="1" fill="#87CEFA" />
<rect x="26" y="14" width="1" height="1" fill="#87CEFA" />
<rect x="27" y="14" width="1" height="1" fill="#87CEFA" />
<rect x="19" y="15" width="1" height="1" fill="#87CEFA" />
<rect x="20" y="15" width="1" height="1" fill="#87CEFA" />
<rect x="21" y="15" width="1" height="1" fill="#87CEFA" />
<rect x="22" y="15" width="1" height="1" fill="#87CEFA" />
<rect x="23" y="15" width="1" height="1" fill="#87CEFA" />
<rect x="24" y="15" width="1" height="1" fill="#87CEFA" />
<rect x="25" y="15" width="1" height="1" fill="#87CEFA" />
<rect x="26" y="15" width="1" height="1" fill="#87CEFA" />
<rect x="19" y="16" width="1" height="1" fill="#87CEFA" />
<rect x="20" y="16" width="1" height="1" fill="#87CEFA" />
<rect x="21" y="16" width="1" height="1" fill="#87CEFA" />
<rect x="22" y="16" width="1" height="1" fill="#87CEFA" />
<rect x="23" y="16" width="1" height="1" fill="#87CEFA" />
<rect x="24" y="16" width="1" height="1" fill="#87CEFA" />
<rect x="25" y="16" width="1" height="1" fill="#87CEFA" />
<rect x="26" y="16" width="1" height="1" fill="#87CEFA" />
<rect x="20" y="17" width="1" height="1" fill="#87CEFA" />
<rect x="21" y="17" width="1" height="1" fill="#87CEFA" />
<rect x="22" y="17" width="1" height="1" fill="#DFD4D4" />
<rect x="23" y="17" width="1" height="1" fill="#DFD4D4" />
<rect x="24" y="17" width="1" height="1" fill="#87CEFA" />
<rect x="25" y="17" width="1" height="1" fill="#87CEFA" />
<rect x="21" y="18" width="1" height="1" fill="#87CEFA" />
<rect x="22" y="18" width="1" height="1" fill="#DFD4D4" />
<rect x="23" y="18" width="1" height="1" fill="#DFD4D4" />
<rect x="24" y="18" width="1" height="1" fill="#87CEFA" />
<rect x="21" y="19" width="1" height="1" fill="#87CEFA" />
<rect x="22" y="19" width="1" height="1" fill="#DFD4D4" />
<rect x="23" y="19" width="1" height="1" fill="#DFD4D4" />
<rect x="24" y="19" width="1" height="1" fill="#87CEFA" />
<rect x="21" y="20" width="1" height="1" fill="#87CEFA" />
<rect x="22" y="20" width="1" height="1" fill="#DFD4D4" />
<rect x="23" y="20" width="1" height="1" fill="#DFD4D4" />
<rect x="24" y="20" width="1" height="1" fill="#87CEFA" />
<rect x="21" y="21" width="1" height="1" fill="#87CEFA" />
<rect x="22" y="21" width="1" height="1" fill="#DFD4D4" />
<rect x="23" y="21" width="1" height="1" fill="#DFD4D4" />
<rect x="24" y="21" width="1" height="1" fill="#87CEFA" />
<rect x="21" y="22" width="1" height="1" fill="#87CEFA" />
<rect x="22" y="22" width="1" height="1" fill="#DFD4D4" />
<rect x="23" y="22" width="1" height="1" fill="#DFD4D4" />
<rect x="24" y="22" width="1" height="1" fill="#87CEFA" />
<rect x="21" y="23" width="1" height="1" fill="#87CEFA" />
<rect x="22" y="23" width="1" height="1" fill="#DFD4D4" />
<rect x="23" y="23" width="1" height="1" fill="#DFD4D4" />
<rect x="24" y="23" width="1" height="1" fill="#87CEFA" />
<rect x="27" y="23" width="1" height="1" fill="#717A84" />
<rect x="21" y="24" width="1" height="1" fill="#87CEFA" />
<rect x="22" y="24" width="1" height="1" fill="#DFD4D4" />
<rect x="23" y="24" width="1" height="1" fill="#DFD4D4" />
<rect x="24" y="24" width="1" height="1" fill="#87CEFA" />
<rect x="26" y="24" width="1" height="1" fill="#717A84" />
<rect x="27" y="24" width="1" height="1" fill="#94A0AD" />
<rect x="28" y="24" width="1" height="1" fill="#717A84" />
<rect x="30" y="24" width="1" height="1" fill="#94A0AD" />
<rect x="21" y="25" width="1" height="1" fill="#87CEFA" />
<rect x="22" y="25" width="1" height="1" fill="#DFD4D4" />
<rect x="23" y="25" width="1" height="1" fill="#DFD4D4" />
<rect x="24" y="25" width="1" height="1" fill="#87CEFA" />
<rect x="26" y="25" width="1" height="1" fill="#6C607B" />
<rect x="27" y="25" width="1" height="1" fill="#94A0AD" />
<rect x="28" y="25" width="1" height="1" fill="#717A84" />
<rect x="30" y="25" width="1" height="1" fill="#717A84" />
<rect x="31" y="25" width="1" height="1" fill="#717A84" />
<rect x="21" y="26" width="1" height="1" fill="#87CEFA" />
<rect x="22" y="26" width="1" height="1" fill="#DFD4D4" />
<rect x="23" y="26" width="1" height="1" fill="#DFD4D4" />
<rect x="24" y="26" width="1" height="1" fill="#87CEFA" />
<rect x="26" y="26" width="1" height="1" fill="#6C607B" />
<rect x="27" y="26" width="1" height="1" fill="#94A0AD" />
<rect x="28" y="26" width="1" height="1" fill="#717A84" />
<rect x="30" y="26" width="1" height="1" fill="#94A0AD" />
<rect x="31" y="26" width="1" height="1" fill="#94A0AD" />
<rect x="21" y="27" width="1" height="1" fill="#87CEFA" />
<rect x="22" y="27" width="1" height="1" fill="#DFD4D4" />
<rect x="23" y="27" width="1" height="1" fill="#DFD4D4" />
<rect x="24" y="27" width="1" height="1" fill="#87CEFA" />
<rect x="26" y="27" width="1" height="1" fill="#6C607B" />
<rect x="27" y="27" width="1" height="1" fill="#717A84" />
<rect x="28" y="27" width="1" height="1" fill="#94A0AD" />
<rect x="30" y="27" width="1" height="1" fill="#94A0AD" />
<rect x="31" y="27" width="1" height="1" fill="#94A0AD" />
<rect x="36" y="27" width="1" height="1" fill="#717A84" />
<rect x="21" y="28" width="1" height="1" fill="#87CEFA" />
<rect x="22" y="28" width="1" height="1" fill="#DFD4D4" />
<rect x="23" y="28" width="1" height="1" fill="#DFD4D4" />
<rect x="24" y="28" width="1" height="1" fill="#87CEFA" />
<rect x="25" y="28" width="1" height="1" fill="#717A84" />
<rect x="26" y="28" width="1" height="1" fill="#6C607B" />
<rect x="27" y="28" width="1" height="1" fill="#94A0AD" />
<rect x="28" y="28" width="1" height="1" fill="#94A0AD" />
<rect x="36" y="28" width="1" height="1" fill="#94A0AD" />
<rect x="37" y="28" width="1" height="1" fill="#94A0AD" />
<rect x="21" y="29" width="1" height="1" fill="#87CEFA" />
<rect x="22" y="29" width="1" height="1" fill="#DFD4D4" />
<rect x="23" y="29" width="1" height="1" fill="#DFD4D4" />
<rect x="24" y="29" width="1" height="1" fill="#87CEFA" />
<rect x="25" y="29" width="1" height="1" fill="#717A84" />
<rect x="26" y="29" width="1" height="1" fill="#6C607B" />
<rect x="27" y="29" width="1" height="1" fill="#94A0AD" />
<rect x="28" y="29" width="1" height="1" fill="#717A84" />
<rect x="36" y="29" width="1" height="1" fill="#94A0AD" />
<rect x="37" y="29" width="1" height="1" fill="#94A0AD" />
<rect x="38" y="29" width="1" height="1" fill="#717A84" />
<rect x="21" y="30" width="1" height="1" fill="#87CEFA" />
<rect x="22" y="30" width="1" height="1" fill="#87CEFA" />
<rect x="23" y="30" width="1" height="1" fill="#87CEFA" />
<rect x="24" y="30" width="1" height="1" fill="#87CEFA" />
<rect x="27" y="30" width="1" height="1" fill="#717A84" />
<rect x="28" y="30" width="1" height="1" fill="#6C607B" />
<rect x="29" y="30" width="1" height="1" fill="#6C607B" />
<rect x="30" y="30" width="1" height="1" fill="#94A0AD" />
<rect x="37" y="30" width="1" height="1" fill="#94A0AD" />
<rect x="38" y="30" width="1" height="1" fill="#717A84" />
<rect x="39" y="30" width="1" height="1" fill="#717A84" />
<rect x="22" y="31" width="1" height="1" fill="#87CEFA" />
<rect x="23" y="31" width="1" height="1" fill="#87CEFA" />
<rect x="9" y="40" width="1" height="1" fill="#87CEFA" />
<rect x="10" y="40" width="1" height="1" fill="#87CEFA" />
<rect x="17" y="40" width="1" height="1" fill="#717A84" />
<rect x="7" y="41" width="1" height="1" fill="#6C607B" />
<rect x="8" y="41" width="1" height="1" fill="#94A0AD" />
<rect x="9" y="41" width="1" height="1" fill="#94A0AD" />
<rect x="10" y="41" width="1" height="1" fill="#94A0AD" />
<rect x="11" y="41" width="1" height="1" fill="#94A0AD" />
<rect x="14" y="41" width="1" height="1" fill="#94A0AD" />
<rect x="15" y="41" width="1" height="1" fill="#717A84" />
<rect x="16" y="41" width="1" height="1" fill="#94A0AD" />
<rect x="17" y="41" width="1" height="1" fill="#717A84" />
<rect x="20" y="41" width="1" height="1" fill="#87CEFA" />
<rect x="7" y="42" width="1" height="1" fill="#6C607B" />
<rect x="8" y="42" width="1" height="1" fill="#94A0AD" />
<rect x="9" y="42" width="1" height="1" fill="#94A0AD" />
<rect x="10" y="42" width="1" height="1" fill="#94A0AD" />
<rect x="11" y="42" width="1" height="1" fill="#94A0AD" />
<rect x="14" y="42" width="1" height="1" fill="#94A0AD" />
<rect x="15" y="42" width="1" height="1" fill="#94A0AD" />
<rect x="16" y="42" width="1" height="1" fill="#94A0AD" />
<rect x="17" y="42" width="1" height="1" fill="#94A0AD" />
<rect x="20" y="42" width="1" height="1" fill="#94A0AD" />
<rect x="21" y="42" width="1" height="1" fill="#717A84" />
<rect x="8" y="43" width="1" height="1" fill="#6C607B" />
<rect x="9" y="43" width="1" height="1" fill="#94A0AD" />
<rect x="10" y="43" width="1" height="1" fill="#94A0AD" />
<rect x="11" y="43" width="1" height="1" fill="#94A0AD" />
<rect x="14" y="43" width="1" height="1" fill="#94A0AD" />
<rect x="15" y="43" width="1" height="1" fill="#717A84" />
<rect x="16" y="43" width="1" height="1" fill="#94A0AD" />
<rect x="17" y="43" width="1" height="1" fill="#94A0AD" />
<rect x="20" y="43" width="1" height="1" fill="#717A84" />
<rect x="21" y="43" width="1" height="1" fill="#94A0AD" />
<rect x="8" y="44" width="1" height="1" fill="#717A84" />
<rect x="9" y="44" width="1" height="1" fill="#94A0AD" />
<rect x="10" y="44" width="1" height="1" fill="#94A0AD" />
<rect x="11" y="44" width="1" height="1" fill="#94A0AD" />
<rect x="14" y="44" width="1" height="1" fill="#94A0AD" />
<rect x="15" y="44" width="1" height="1" fill="#94A0AD" />
<rect x="16" y="44" width="1" height="1" fill="#94A0AD" />
<rect x="17" y="44" width="1" height="1" fill="#94A0AD" />
<rect x="20" y="44" width="1" height="1" fill="#94A0AD" />
<rect x="21" y="44" width="1" height="1" fill="#94A0AD" />
<rect x="6" y="45" width="1" height="1" fill="#6C607B" />
<rect x="21" y="45" width="1" height="1" fill="#717A84" />
<rect x="6" y="46" width="1" height="1" fill="#6C607B" />
<rect x="20" y="46" width="1" height="1" fill="#94A0AD" />
<rect x="21" y="46" width="1" height="1" fill="#94A0AD" />
<rect x="5" y="47" width="1" height="1" fill="#717A84" />
<rect x="6" y="47" width="1" height="1" fill="#717A84" />
<rect x="20" y="47" width="1" height="1" fill="#94A0AD" />
<rect x="21" y="47" width="1" height="1" fill="#94A0AD" />
<rect x="22" y="47" width="1" height="1" fill="#717A84" />
<rect x="5" y="48" width="1" height="1" fill="#6C607B" />
<rect x="6" y="48" width="1" height="1" fill="#717A84" />
<rect x="15" y="48" width="1" height="1" fill="#94A0AD" />
<rect x="16" y="48" width="1" height="1" fill="#717A84" />
<rect x="17" y="48" width="1" height="1" fill="#94A0AD" />
<rect x="18" y="48" width="1" height="1" fill="#717A84" />
<rect x="20" y="48" width="1" height="1" fill="#94A0AD" />
<rect x="21" y="48" width="1" height="1" fill="#94A0AD" />
<rect x="22" y="48" width="1" height="1" fill="#717A84" />
<rect x="5" y="49" width="1" height="1" fill="#717A84" />
<rect x="6" y="49" width="1" height="1" fill="#717A84" />
<rect x="15" y="49" width="1" height="1" fill="#94A0AD" />
<rect x="16" y="49" width="1" height="1" fill="#94A0AD" />
<rect x="17" y="49" width="1" height="1" fill="#94A0AD" />
<rect x="18" y="49" width="1" height="1" fill="#94A0AD" />
<rect x="20" y="49" width="1" height="1" fill="#717A84" />
<rect x="21" y="49" width="1" height="1" fill="#717A84" />
<rect x="22" y="49" width="1" height="1" fill="#717A84" />
</svg>